<svg width="403" height="105" viewBox="0 0 403 105" fill="none" xmlns="http://www.w3.org/2000/svg">
<path d="M25.5 27C32 21.5 34 21.5 34.5 16C35 10.5 34 9.92005 31 6.92005C27 2.92005 25.5 2.5 28 0C32 0.920044 35 2.92004 36 3.42004C36.4472 3.64365 36.7322 3.65227 38.5 5.42004L38.5 5.42009C40 6.92005 40 6.92007 41.5 9.42004C43 11.92 43.9073 13.4292 45.5 15.42C47.5 17.92 48.6056 19.7492 49.5 20.42C51.3296 21.7922 54.4145 26.1603 57.2235 26.5119L58 26.4999C57.7444 26.5425 57.4851 26.5446 57.2235 26.5119L25.5 27Z" fill="#2E571F"/>
<path d="M55.4855 61.3504H78.1118V94.577C73.6396 97.6011 68.1251 100.096 61.5684 102.062C55.0118 104.027 48.8909 105.01 43.2059 105.01C34.9437 105.01 27.5343 103.214 20.9776 99.6234C14.4209 96.0324 9.28548 91.0805 5.57129 84.7678C1.8571 78.4551 0 71.3297 0 63.3916C0 55.5291 1.9329 48.4415 5.79869 42.1288C9.66448 35.8161 15.0084 30.8831 21.8304 27.3299C28.6523 23.7766 36.346 22 44.9114 22C51.127 22 57.3615 23.134 63.615 25.4021C69.8685 27.6701 75.1177 30.6941 79.3625 34.4742L64.4678 52.505C61.8148 49.859 58.688 47.7611 55.0875 46.2113C51.4871 44.6614 48.0571 43.8865 44.7977 43.8865C41.4625 43.8865 38.4305 44.737 35.7017 46.4381C32.9729 48.1391 30.8505 50.4638 29.3345 53.4123C27.8185 56.3607 27.0605 59.6871 27.0605 63.3916C27.0605 67.1717 27.8375 70.5548 29.3914 73.541C30.9453 76.5273 33.0866 78.8709 35.8154 80.5719C38.5442 82.273 41.6141 83.1235 45.0251 83.1235C47.9055 83.1235 51.3923 82.2163 55.4855 80.4018V61.3504Z" fill="#FF791A"/>
<path d="M124.602 67.7549H134.634V82.4873C132.651 83.8281 130.206 84.9343 127.299 85.8058C124.392 86.6774 121.678 87.1131 119.157 87.1131C115.494 87.1131 112.208 86.317 109.301 84.7248C106.394 83.1325 104.117 80.9369 102.47 78.1379C100.823 75.339 100 72.1796 100 68.6599C100 65.1738 100.857 62.0312 102.571 59.2322C104.285 56.4332 106.655 54.246 109.679 52.6705C112.704 51.095 116.115 50.3073 119.913 50.3073C122.669 50.3073 125.434 50.8101 128.206 51.8157C130.979 52.8214 133.306 54.1622 135.189 55.8382L128.584 63.833C127.408 62.6597 126.022 61.7295 124.425 61.0423C122.829 60.3552 121.308 60.0116 119.863 60.0116C118.384 60.0116 117.04 60.3887 115.83 61.1429C114.62 61.8971 113.679 62.9279 113.007 64.2352C112.334 65.5425 111.998 67.0174 111.998 68.6599C111.998 70.336 112.343 71.836 113.032 73.1601C113.721 74.4842 114.67 75.5233 115.88 76.2775C117.09 77.0318 118.451 77.4089 119.964 77.4089C121.241 77.4089 122.787 77.0066 124.602 76.2021V67.7549ZM163.167 60.9921C165.402 62.7854 166.519 65.2911 166.519 68.5091V86.3086H155.378V83.342C153.697 85.655 151.11 86.8115 147.614 86.8115C144.724 86.8115 142.464 86.0321 140.834 84.4734C139.204 82.9147 138.389 80.8112 138.389 78.1631C138.389 75.4479 139.296 73.3864 141.111 71.9785C142.926 70.5706 145.581 69.8332 149.076 69.7661H155.378C155.344 68.794 154.966 68.0482 154.244 67.5286C153.521 67.009 152.471 66.7493 151.093 66.7493C150.017 66.7493 148.732 66.9001 147.236 67.2018C145.74 67.5035 144.236 67.9392 142.724 68.5091L140.203 60.9669C142.556 60.0954 144.9 59.4333 147.236 58.9808C149.572 58.5283 151.765 58.302 153.815 58.302C157.814 58.302 160.932 59.1987 163.167 60.9921ZM153.689 79.0682C154.378 78.6994 154.941 78.1798 155.378 77.5094V74.9954H151.446C149.832 74.9954 149.026 75.7328 149.026 77.2077C149.026 77.9787 149.244 78.5737 149.681 78.9927C150.118 79.4117 150.74 79.6212 151.546 79.6212C152.286 79.6212 153 79.4369 153.689 79.0682ZM215.041 59.6093C216.52 60.4809 217.671 61.7044 218.494 63.2799C219.318 64.8553 219.729 66.6822 219.729 68.7605V86.3086H208.386V72.0288C208.386 70.8891 208.101 69.9756 207.529 69.2885C206.958 68.6013 206.202 68.2577 205.261 68.2577C204.219 68.2577 203.379 68.6599 202.74 69.4644C202.101 70.2689 201.782 71.3416 201.782 72.6824V86.3086H190.439V72.0288C190.439 70.8891 190.153 69.9756 189.582 69.2885C189.011 68.6013 188.255 68.2577 187.313 68.2577C186.272 68.2577 185.431 68.6599 184.793 69.4644C184.154 70.2689 183.835 71.3416 183.835 72.6824V86.3086H172.492V58.8048H183.835V62.6765C184.776 61.2686 185.944 60.1876 187.339 59.4333C188.733 58.6791 190.305 58.302 192.052 58.302C194.136 58.302 195.959 58.8216 197.522 59.8607C199.085 60.8999 200.236 62.3413 200.976 64.1849C201.883 62.3078 203.101 60.858 204.63 59.8356C206.16 58.8132 207.949 58.302 209.999 58.302C211.882 58.302 213.562 58.7378 215.041 59.6093ZM246.271 60.263C248.489 61.5033 250.186 63.2715 251.362 65.5677C252.539 67.8638 253.127 70.5539 253.127 73.6378C253.127 74.2747 253.11 74.7607 253.076 75.0959H235.129C235.499 76.1686 236.079 76.9815 236.869 77.5346C237.658 78.0877 238.608 78.3642 239.717 78.3642C241.7 78.3642 243.565 77.543 245.313 75.9004L251.211 81.6828C249.732 83.3253 247.943 84.5739 245.842 85.4287C243.742 86.2835 241.364 86.7109 238.709 86.7109C235.617 86.7109 232.936 86.1327 230.668 84.9762C228.399 83.8197 226.668 82.1856 225.475 80.0738C224.282 77.962 223.685 75.4982 223.685 72.6824C223.685 69.7997 224.29 67.2856 225.5 65.1403C226.71 62.9949 228.433 61.3357 230.668 60.1624C232.903 58.9892 235.482 58.4026 238.406 58.4026C241.431 58.4026 244.052 59.0227 246.271 60.263ZM240.902 67.0509C240.28 66.3135 239.482 65.9448 238.507 65.9448C237.566 65.9448 236.785 66.2967 236.163 67.0007C235.541 67.7046 235.113 68.6599 234.877 69.8667H241.733C241.801 68.727 241.523 67.7884 240.902 67.0509ZM270.896 67.5538C269.787 67.5538 268.905 68.0147 268.25 68.9365C267.594 69.8583 267.267 71.0902 267.267 72.6322C267.267 74.2076 267.594 75.4563 268.25 76.3781C268.905 77.2999 269.787 77.7608 270.896 77.7608C272.577 77.7608 273.703 76.772 274.274 74.7942L283.449 79.0179C282.441 81.4649 280.786 83.3588 278.484 84.6996C276.181 86.0405 273.451 86.7109 270.291 86.7109C267.401 86.7109 264.864 86.1327 262.679 84.9762C260.494 83.8197 258.806 82.1856 257.612 80.0738C256.419 77.962 255.823 75.4982 255.823 72.6824C255.823 69.8332 256.419 67.3275 257.612 65.1654C258.806 63.0033 260.503 61.3357 262.704 60.1624C264.906 58.9892 267.468 58.4026 270.392 58.4026C273.383 58.4026 276.022 59.0981 278.307 60.4893C280.593 61.8804 282.307 63.8329 283.449 66.347L274.425 70.1684C273.686 68.4253 272.51 67.5538 270.896 67.5538ZM287.557 49H298.9V86.3086H287.557V49ZM327.659 60.1373C330.012 61.2938 331.827 62.9363 333.104 65.0648C334.381 67.1934 335.02 69.6823 335.02 72.5316C335.02 75.3809 334.381 77.8698 333.104 79.9984C331.827 82.1269 330.012 83.7778 327.659 84.951C325.307 86.1243 322.568 86.7109 319.442 86.7109C316.316 86.7109 313.577 86.1243 311.225 84.951C308.872 83.7778 307.057 82.1269 305.78 79.9984C304.503 77.8698 303.864 75.3809 303.864 72.5316C303.864 69.6823 304.503 67.1934 305.78 65.0648C307.057 62.9363 308.872 61.2938 311.225 60.1373C313.577 58.9808 316.316 58.4026 319.442 58.4026C322.568 58.4026 325.307 58.9808 327.659 60.1373ZM316.442 68.8108C315.686 69.7829 315.308 71.0734 315.308 72.6824C315.308 74.2914 315.686 75.582 316.442 76.5541C317.199 77.5262 318.198 78.0122 319.442 78.0122C320.685 78.0122 321.685 77.5262 322.442 76.5541C323.198 75.582 323.576 74.2914 323.576 72.6824C323.576 71.0734 323.198 69.7829 322.442 68.8108C321.685 67.8387 320.685 67.3526 319.442 67.3526C318.198 67.3526 317.199 67.8387 316.442 68.8108ZM352.789 67.5538C351.68 67.5538 350.798 68.0147 350.142 68.9365C349.487 69.8583 349.159 71.0902 349.159 72.6322C349.159 74.2076 349.487 75.4563 350.142 76.3781C350.798 77.2999 351.68 77.7608 352.789 77.7608C354.47 77.7608 355.595 76.772 356.167 74.7942L365.342 79.0179C364.334 81.4649 362.679 83.3588 360.376 84.6996C358.074 86.0405 355.343 86.7109 352.184 86.7109C349.294 86.7109 346.756 86.1327 344.572 84.9762C342.387 83.8197 340.698 82.1856 339.505 80.0738C338.312 77.962 337.716 75.4982 337.716 72.6824C337.716 69.8332 338.312 67.3275 339.505 65.1654C340.698 63.0033 342.396 61.3357 344.597 60.1624C346.798 58.9892 349.361 58.4026 352.285 58.4026C355.276 58.4026 357.914 59.0981 360.2 60.4893C362.485 61.8804 364.199 63.8329 365.342 66.347L356.318 70.1684C355.579 68.4253 354.402 67.5538 352.789 67.5538ZM400 58.8048L389.968 69.4142L399.849 86.3086H386.388L382.154 77.6603L380.792 79.0682V86.3086H369.449V49H380.792V65.9448L387.195 58.8048H400Z" fill="#0D0E0E"/>
<path d="M34 23C4.00001 38.5 -4.57764e-05 77.5 28.5 103C10.6343 74 9.00002 45.5 34 23Z" fill="#FF6A00"/>
<path d="M37.5 22.5C18.2662 53.8067 16.2482 71.6994 36.9999 104C25.356 73.6871 21.3021 57.2853 37.5 22.5Z" fill="#FF6A00"/>
<path fill-rule="evenodd" clip-rule="evenodd" d="M59.6243 48.4869C57.062 40.8867 52.5831 32.4731 46 22C49.0261 30.6633 51.4162 38.2273 53.071 45.3168C55.251 46.0117 57.4554 47.0495 59.6243 48.4869ZM62.1968 61.35H55.5552C55.8121 65.2216 55.8 69.0978 55.5 73.0974V80.5L55 80.6667L54.5904 80.8032C53.4551 87.9367 51.4557 95.6414 48.5 104.5C57.9349 85.8923 62.8365 73.7411 62.1968 61.35Z" fill="#FF6A00"/>
<path fill-rule="evenodd" clip-rule="evenodd" d="M67.664 48.4199L72.3433 42.8848C68.1203 37.1936 61.4656 30.8675 52 23C59.0087 32.5908 64.6566 40.3447 67.664 48.4199ZM53.5 103.5C65.2256 84.916 70.0008 72.1077 70.0348 61.35H77.8456C76.3818 70.5717 69.156 80.9651 58.0261 96.9742L58.0259 96.9745C56.5816 99.0519 55.0717 101.224 53.5 103.5Z" fill="#FF6A00"/>
<path d="M322.5 87C333 86.5 363.7 76.8 346.5 72C359.5 72.3333 374.1 71.8 358.5 63C370 64.6667 386.4 67.8 378 57C383 63.4286 400 65.5 400 55.5" stroke="white" stroke-width="4"/>
<path fill-rule="evenodd" clip-rule="evenodd" d="M263.627 49L398.183 86.75H397.808H397.255H396.699H396.142H395.582H395.02H394.456H393.89H393.322H392.752H392.18H391.606H391.03H390.452H389.872H389.289H388.705H388.119H387.531H386.941H386.35H385.756H385.16H384.563H383.963H383.362H382.759H382.154H381.547H380.939H380.329H379.717H379.103H378.487H377.87H377.251H376.63H376.007H375.383H374.757H374.13H373.5H372.869H372.237H371.603H370.967H370.33H369.691H369.05H368.408H367.765H367.119H366.473H365.824H365.175H364.524H363.871H363.217H362.561H361.904H361.246H360.586H359.924H359.262H358.598H357.932H357.265H356.597H355.928H355.257H354.585H353.912H353.237H352.561H351.884H351.205H350.526H349.845H349.163H348.479H347.795H347.109H346.422H345.734H345.045H344.355H343.664H342.971H342.278H341.583H340.887H340.191H339.493H338.794H338.094H337.393H336.692H335.989H335.285H334.58H333.875H333.168H332.461H331.752H331.043H330.333H329.622H328.91H328.197H327.483H326.769H326.054H325.338H324.621H323.903H323.185H322.466H321.746H321.026H320.304H319.582H318.86H318.136H317.412H316.688H315.962H315.237H314.51H313.783H313.055H312.327H311.598H310.869H310.139H309.408H308.677H307.946H307.214H306.481H305.748H305.015H304.281H303.547H302.812H302.077H301.342H300.606H299.87H299.133H298.396H297.659H296.921H296.183H295.445H294.707H293.968H293.229H292.49H291.75H291.01H290.27H289.53H288.79H288.049H287.309H286.568H285.827H285.086H284.344H283.603H282.862H282.12H281.379H280.637H279.895H279.154H278.412H277.67H276.929H276.187H275.445H274.704H273.962H273.221H272.479H271.738H270.997H270.256H269.515H268.774H268.033H267.292H266.552H265.812H265.072H264.332H263.593H262.853H262.114H261.376H260.637H259.899H259.161H258.423H257.686H256.949H256.213H255.476H254.741H254.005H253.27H252.535H251.801H251.067H250.334H249.601H248.868H248.136H247.405H246.674H245.943H245.213H244.484H243.755H243.027H242.299H241.572H240.846H240.12H239.394H238.67H237.946H237.223H236.5H235.778H235.057H234.336H233.616H232.897H232.179H231.461H230.744H230.028H229.313H228.599H227.885H227.172H226.46H225.749H225.039H224.33H223.622H222.914H222.207H221.502H220.797H220.093H219.39H218.689H217.988H217.288H216.589H215.891H215.195H214.499H213.804H213.111H212.418H211.727H211.037H210.348H209.66H208.973H208.287H207.603H206.919H206.237H205.556H204.877H204.198H203.521H202.845H202.17H201.497H200.825H200.154H199.484H198.816H198.15H197.484H196.82H196.157H195.496H194.836H194.178H193.521H192.865H192.211H191.558H190.907H190.257H189.609H188.962H188.317H187.674H187.031H186.391H185.752H185.115H184.479H183.845H183.212H182.581H181.952H181.324H180.698H180.074H179.452H178.831H178.212H177.594H176.979H176.365H175.753H175.142H174.534H173.927H173.322H172.719H172.118H171.519H170.921H170.325H169.732H169.14H168.55H167.962H167.376H166.792H166.21H165.63H165.051H164.475H163.901H163.329H162.759H162.191H161.625H161.061H160.499H159.939H159.382H158.826H158.273H157.722H157.173H156.626H156.081H155.538H154.998H154.46H153.924H153.391H152.859H152.33H151.803H151.279H150.757H150.237H149.719H149.204H148.691H148.181H147.673H147.167H146.663H146.163H145.664H145.168H144.674H144.183H143.695H143.208H142.725H142.244H141.765H141.289H140.815H140.344H139.876H139.41H138.947H138.486H138.028H137.573H137.12H136.67H136.222H135.778H135.336H134.896H134.46H134.026H133.595H133.166H132.741H132.318H131.898H131.481H131.066H130.655H130.246H129.84H129.437H129.037H128.639H128.245H127.853H127.465H127.079H126.697H126.317H125.94H125.566H125.196H124.828H124.463H124.102H123.743H123.387H123.035H122.686H122.339H121.996H121.656H121.319H120.985H120.654H120.327H120.003H119.681H119.364H119.049H118.737H118.429H118.124H117.822H117.524H117.229H116.937H116.648H116.363H116.081H115.803H115.528H115.256H114.988H114.723H114.461H114.203H113.948H113.697H113.449H113.205H112.964H112.726H112.493H112.262H112.035H111.812H111.593H111.376H111.164H110.955H110.75H110.548H110.35H110.155H109.964H109.777H109.594H109.414H109.238H109.066H108.897H108.732H108.571H108.414H108.26H108.11H107.964H107.822H107.684H107.549H107.419H107.292H107.169H107.05H106.935H106.823H106.716H106.613H106.513H106.418H106.326H106.239H106.155H106.076H106V87.25H106.076H106.155H106.239H106.326H106.418H106.513H106.613H106.716H106.823H106.935H107.05H107.169H107.292H107.419H107.549H107.684H107.822H107.964H108.11H108.26H108.414H108.571H108.732H108.897H109.066H109.238H109.414H109.594H109.777H109.964H110.155H110.35H110.548H110.75H110.955H111.164H111.376H111.593H111.812H112.035H112.262H112.493H112.726H112.964H113.205H113.449H113.697H113.948H114.203H114.461H114.723H114.988H115.256H115.528H115.803H116.081H116.363H116.648H116.937H117.229H117.524H117.822H118.124H118.429H118.737H119.049H119.364H119.681H120.003H120.327H120.654H120.985H121.319H121.656H121.996H122.339H122.686H123.035H123.387H123.743H124.102H124.463H124.828H125.196H125.566H125.94H126.317H126.697H127.079H127.465H127.853H128.245H128.639H129.037H129.437H129.84H130.246H130.655H131.066H131.481H131.898H132.318H132.741H133.166H133.595H134.026H134.46H134.896H135.336H135.778H136.222H136.67H137.12H137.573H138.028H138.486H138.947H139.41H139.876H140.344H140.815H141.289H141.765H142.244H142.725H143.208H143.695H144.183H144.674H145.168H145.664H146.163H146.663H147.167H147.673H148.181H148.691H149.204H149.719H150.237H150.757H151.279H151.803H152.33H152.859H153.391H153.924H154.46H154.998H155.538H156.081H156.626H157.173H157.722H158.273H158.826H159.382H159.939H160.499H161.061H161.625H162.191H162.759H163.329H163.901H164.475H165.051H165.63H166.21H166.792H167.376H167.962H168.55H169.14H169.732H170.325H170.921H171.519H172.118H172.719H173.322H173.927H174.534H175.142H175.753H176.365H176.979H177.594H178.212H178.831H179.452H180.074H180.698H181.324H181.952H182.581H183.212H183.845H184.479H185.115H185.752H186.391H187.031H187.674H188.317H188.962H189.609H190.257H190.907H191.558H192.211H192.865H193.521H194.178H194.836H195.496H196.157H196.82H197.484H198.15H198.816H199.484H200.154H200.825H201.497H202.17H202.845H203.521H204.198H204.877H205.556H206.237H206.919H207.603H208.287H208.973H209.66H210.348H211.037H211.727H212.418H213.111H213.804H214.499H215.195H215.891H216.589H217.288H217.988H218.689H219.39H220.093H220.797H221.502H222.207H222.914H223.622H224.33H225.039H225.749H226.46H227.172H227.885H228.599H229.313H230.028H230.744H231.461H232.179H232.897H233.616H234.336H235.057H235.778H236.5H237.223H237.946H238.67H239.394H240.12H240.846H241.572H242.299H243.027H243.755H244.484H245.213H245.943H246.674H247.405H248.136H248.868H249.601H250.334H251.067H251.801H252.535H253.27H254.005H254.741H255.476H256.213H256.949H257.686H258.423H259.161H259.899H260.637H261.376H262.114H262.853H263.593H264.332H265.072H265.812H266.552H267.292H268.033H268.774H269.515H270.256H270.997H271.738H272.479H273.221H273.962H274.704H275.445H276.187H276.929H277.67H278.412H279.154H279.895H280.637H281.379H282.12H282.862H283.603H284.344H285.086H285.827H286.568H287.309H288.049H288.79H289.53H290.27H291.01H291.75H292.49H293.229H293.968H294.707H295.445H296.183H296.921H297.659H298.396H299.133H299.87H300.606H301.342H302.077H302.812H303.547H304.281H305.015H305.748H306.481H307.214H307.946H308.677H309.408H310.139H310.869H311.598H312.327H313.055H313.783H314.51H315.237H315.962H316.688H317.412H318.136H318.86H319.582H320.304H321.026H321.746H322.466H323.185H323.903H324.621H325.338H326.054H326.769H327.483H328.197H328.91H329.622H330.333H331.043H331.752H332.461H333.168H333.875H334.58H335.285H335.989H336.692H337.393H338.094H338.794H339.493H340.191H340.887H341.583H342.278H342.971H343.664H344.355H345.045H345.734H346.422H347.109H347.795H348.479H349.163H349.845H350.526H351.205H351.884H352.561H353.237H353.912H354.585H355.257H355.928H356.597H357.265H357.932H358.598H359.262H359.924H360.586H361.246H361.904H362.561H363.217H363.871H364.524H365.175H365.824H366.473H367.119H367.765H368.408H369.05H369.691H370.33H370.967H371.603H372.237H372.869H373.5H374.13H374.757H375.383H376.007H376.63H377.251H377.87H378.487H379.103H379.717H380.329H380.939H381.547H382.154H382.759H383.362H383.963H384.563H385.16H385.756H386.35H386.941H387.531H388.119H388.705H389.289H389.872H390.452H391.03H391.606H392.18H392.752H393.322H393.89H394.456H395.02H395.582H396.142H396.699H397.255H397.808H398.359H398.908H399.455H400H400.25V87V49H399.75V86.2292L372.76 49H372.142L399.104 86.1894L335.164 49H334.169L398.177 86.2289L265.478 49H263.627Z" fill="white"/>
<path d="M263.627 49V47L263.087 50.9257L263.627 49ZM398.183 86.75V88.75L398.724 84.8243L398.183 86.75ZM106 86.75V84.75H104V86.75H106ZM106 87.25H104V89.25H106V87.25ZM400.25 87.25V89.25H402.25V87.25H400.25ZM400.25 49H402.25V47H400.25V49ZM399.75 49V47H397.75V49H399.75ZM399.75 86.2292L398.131 87.4032L401.75 92.3954V86.2292H399.75ZM372.76 49L374.379 47.8261L373.78 47H372.76V49ZM372.142 49V47H368.222L370.523 50.1739L372.142 49ZM399.104 86.1894L398.098 87.9182L400.723 85.0155L399.104 86.1894ZM335.164 49L336.169 47.2712L335.703 47H335.164V49ZM334.169 49V47H326.753L333.164 50.7288L334.169 49ZM398.177 86.2289L397.637 88.1545L399.183 84.5001L398.177 86.2289ZM265.478 49L266.019 47.0743L265.754 47H265.478V49ZM263.087 50.9257L397.643 88.6757L398.724 84.8243L264.168 47.0743L263.087 50.9257ZM398.183 84.75H397.808V88.75H398.183V84.75ZM397.808 84.75H397.255V88.75H397.808V84.75ZM397.255 84.75H396.699V88.75H397.255V84.75ZM396.699 84.75H396.142V88.75H396.699V84.75ZM396.142 84.75H395.582V88.75H396.142V84.75ZM395.582 84.75H395.02V88.75H395.582V84.75ZM395.02 84.75H394.456V88.75H395.02V84.75ZM394.456 84.75H393.89V88.75H394.456V84.75ZM393.89 84.75H393.322V88.75H393.89V84.75ZM393.322 84.75H392.752V88.75H393.322V84.75ZM392.752 84.75H392.18V88.75H392.752V84.75ZM392.18 84.75H391.606V88.75H392.18V84.75ZM391.606 84.75H391.03V88.75H391.606V84.75ZM391.03 84.75H390.452V88.75H391.03V84.75ZM390.452 84.75H389.872V88.75H390.452V84.75ZM389.872 84.75H389.289V88.75H389.872V84.75ZM389.289 84.75H388.705V88.75H389.289V84.75ZM388.705 84.75H388.119V88.75H388.705V84.75ZM388.119 84.75H387.531V88.75H388.119V84.75ZM387.531 84.75H386.941V88.75H387.531V84.75ZM386.941 84.75H386.35V88.75H386.941V84.75ZM386.35 84.75H385.756V88.75H386.35V84.75ZM385.756 84.75H385.16V88.75H385.756V84.75ZM385.16 84.75H384.563V88.75H385.16V84.75ZM384.563 84.75H383.963V88.75H384.563V84.75ZM383.963 84.75H383.362V88.75H383.963V84.75ZM383.362 84.75H382.759V88.75H383.362V84.75ZM382.759 84.75H382.154V88.75H382.759V84.75ZM382.154 84.75H381.547V88.75H382.154V84.75ZM381.547 84.75H380.939V88.75H381.547V84.75ZM380.939 84.75H380.329V88.75H380.939V84.75ZM380.329 84.75H379.717V88.75H380.329V84.75ZM379.717 84.75H379.103V88.75H379.717V84.75ZM379.103 84.75H378.487V88.75H379.103V84.75ZM378.487 84.75H377.87V88.75H378.487V84.75ZM377.87 84.75H377.251V88.75H377.87V84.75ZM377.251 84.75H376.63V88.75H377.251V84.75ZM376.63 84.75H376.007V88.75H376.63V84.75ZM376.007 84.75H375.383V88.75H376.007V84.75ZM375.383 84.75H374.757V88.75H375.383V84.75ZM374.757 84.75H374.13V88.75H374.757V84.75ZM374.13 84.75H373.5V88.75H374.13V84.75ZM373.5 84.75H372.869V88.75H373.5V84.75ZM372.869 84.75H372.237V88.75H372.869V84.75ZM372.237 84.75H371.603V88.75H372.237V84.75ZM371.603 84.75H370.967V88.75H371.603V84.75ZM370.967 84.75H370.33V88.75H370.967V84.75ZM370.33 84.75H369.691V88.75H370.33V84.75ZM369.691 84.75H369.05V88.75H369.691V84.75ZM369.05 84.75H368.408V88.75H369.05V84.75ZM368.408 84.75H367.765V88.75H368.408V84.75ZM367.765 84.75H367.119V88.75H367.765V84.75ZM367.119 84.75H366.473V88.75H367.119V84.75ZM366.473 84.75H365.824V88.75H366.473V84.75ZM365.824 84.75H365.175V88.75H365.824V84.75ZM365.175 84.75H364.524V88.75H365.175V84.75ZM364.524 84.75H363.871V88.75H364.524V84.75ZM363.871 84.75H363.217V88.75H363.871V84.75ZM363.217 84.75H362.561V88.75H363.217V84.75ZM362.561 84.75H361.904V88.75H362.561V84.75ZM361.904 84.75H361.246V88.75H361.904V84.75ZM361.246 84.75H360.586V88.75H361.246V84.75ZM360.586 84.75H359.924V88.75H360.586V84.75ZM359.924 84.75H359.262V88.75H359.924V84.75ZM359.262 84.75H358.598V88.75H359.262V84.75ZM358.598 84.75H357.932V88.75H358.598V84.75ZM357.932 84.75H357.265V88.75H357.932V84.75ZM357.265 84.75H356.597V88.75H357.265V84.75ZM356.597 84.75H355.928V88.75H356.597V84.75ZM355.928 84.75H355.257V88.75H355.928V84.75ZM355.257 84.75H354.585V88.75H355.257V84.75ZM354.585 84.75H353.912V88.75H354.585V84.75ZM353.912 84.75H353.237V88.75H353.912V84.75ZM353.237 84.75H352.561V88.75H353.237V84.75ZM352.561 84.75H351.884V88.75H352.561V84.75ZM351.884 84.75H351.205V88.75H351.884V84.75ZM351.205 84.75H350.526V88.75H351.205V84.75ZM350.526 84.75H349.845V88.75H350.526V84.75ZM349.845 84.75H349.163V88.75H349.845V84.75ZM349.163 84.75H348.479V88.75H349.163V84.75ZM348.479 84.75H347.795V88.75H348.479V84.75ZM347.795 84.75H347.109V88.75H347.795V84.75ZM347.109 84.75H346.422V88.75H347.109V84.75ZM346.422 84.75H345.734V88.75H346.422V84.75ZM345.734 84.75H345.045V88.75H345.734V84.75ZM345.045 84.75H344.355V88.75H345.045V84.75ZM344.355 84.75H343.664V88.75H344.355V84.75ZM343.664 84.75H342.971V88.75H343.664V84.75ZM342.971 84.75H342.278V88.75H342.971V84.75ZM342.278 84.75H341.583V88.75H342.278V84.75ZM341.583 84.75H340.887V88.75H341.583V84.75ZM340.887 84.75H340.191V88.75H340.887V84.75ZM340.191 84.75H339.493V88.75H340.191V84.75ZM339.493 84.75H338.794V88.75H339.493V84.75ZM338.794 84.75H338.094V88.75H338.794V84.75ZM338.094 84.75H337.393V88.75H338.094V84.75ZM337.393 84.75H336.692V88.75H337.393V84.75ZM336.692 84.75H335.989V88.75H336.692V84.75ZM335.989 84.75H335.285V88.75H335.989V84.75ZM335.285 84.75H334.58V88.75H335.285V84.75ZM334.58 84.75H333.875V88.75H334.58V84.75ZM333.875 84.75H333.168V88.75H333.875V84.75ZM333.168 84.75H332.461V88.75H333.168V84.75ZM332.461 84.75H331.752V88.75H332.461V84.75ZM331.752 84.75H331.043V88.75H331.752V84.75ZM331.043 84.75H330.333V88.75H331.043V84.75ZM330.333 84.75H329.622V88.75H330.333V84.75ZM329.622 84.75H328.91V88.75H329.622V84.75ZM328.91 84.75H328.197V88.75H328.91V84.75ZM328.197 84.75H327.483V88.75H328.197V84.75ZM327.483 84.75H326.769V88.75H327.483V84.75ZM326.769 84.75H326.054V88.75H326.769V84.75ZM326.054 84.75H325.338V88.75H326.054V84.75ZM325.338 84.75H324.621V88.75H325.338V84.75ZM324.621 84.75H323.903V88.75H324.621V84.75ZM323.903 84.75H323.185V88.75H323.903V84.75ZM323.185 84.75H322.466V88.75H323.185V84.75ZM322.466 84.75H321.746V88.75H322.466V84.75ZM321.746 84.75H321.026V88.75H321.746V84.75ZM321.026 84.75H320.304V88.75H321.026V84.75ZM320.304 84.75H319.582V88.75H320.304V84.75ZM319.582 84.75H318.86V88.75H319.582V84.75ZM318.86 84.75H318.136V88.75H318.86V84.75ZM318.136 84.75H317.412V88.75H318.136V84.75ZM317.412 84.75H316.688V88.75H317.412V84.75ZM316.688 84.75H315.962V88.75H316.688V84.75ZM315.962 84.75H315.237V88.75H315.962V84.75ZM315.237 84.75H314.51V88.75H315.237V84.75ZM314.51 84.75H313.783V88.75H314.51V84.75ZM313.783 84.75H313.055V88.75H313.783V84.75ZM313.055 84.75H312.327V88.75H313.055V84.75ZM312.327 84.75H311.598V88.75H312.327V84.75ZM311.598 84.75H310.869V88.75H311.598V84.75ZM310.869 84.75H310.139V88.75H310.869V84.75ZM310.139 84.75H309.408V88.75H310.139V84.75ZM309.408 84.75H308.677V88.75H309.408V84.75ZM308.677 84.75H307.946V88.75H308.677V84.75ZM307.946 84.75H307.214V88.75H307.946V84.75ZM307.214 84.75H306.481V88.75H307.214V84.75ZM306.481 84.75H305.748V88.75H306.481V84.75ZM305.748 84.75H305.015V88.75H305.748V84.75ZM305.015 84.75H304.281V88.75H305.015V84.75ZM304.281 84.75H303.547V88.75H304.281V84.75ZM303.547 84.75H302.812V88.75H303.547V84.75ZM302.812 84.75H302.077V88.75H302.812V84.75ZM302.077 84.75H301.342V88.75H302.077V84.75ZM301.342 84.75H300.606V88.75H301.342V84.75ZM300.606 84.75H299.87V88.75H300.606V84.75ZM299.87 84.75H299.133V88.75H299.87V84.75ZM299.133 84.75H298.396V88.75H299.133V84.75ZM298.396 84.75H297.659V88.75H298.396V84.75ZM297.659 84.75H296.921V88.75H297.659V84.75ZM296.921 84.75H296.183V88.75H296.921V84.75ZM296.183 84.75H295.445V88.75H296.183V84.75ZM295.445 84.75H294.707V88.75H295.445V84.75ZM294.707 84.75H293.968V88.75H294.707V84.75ZM293.968 84.75H293.229V88.75H293.968V84.75ZM293.229 84.75H292.49V88.75H293.229V84.75ZM292.49 84.75H291.75V88.75H292.49V84.75ZM291.75 84.75H291.01V88.75H291.75V84.75ZM291.01 84.75H290.27V88.75H291.01V84.75ZM290.27 84.75H289.53V88.75H290.27V84.75ZM289.53 84.75H288.79V88.75H289.53V84.75ZM288.79 84.75H288.049V88.75H288.79V84.75ZM288.049 84.75H287.309V88.75H288.049V84.75ZM287.309 84.75H286.568V88.75H287.309V84.75ZM286.568 84.75H285.827V88.75H286.568V84.75ZM285.827 84.75H285.086V88.75H285.827V84.75ZM285.086 84.75H284.344V88.75H285.086V84.75ZM284.344 84.75H283.603V88.75H284.344V84.75ZM283.603 84.75H282.862V88.75H283.603V84.75ZM282.862 84.75H282.12V88.75H282.862V84.75ZM282.12 84.75H281.379V88.75H282.12V84.75ZM281.379 84.75H280.637V88.75H281.379V84.75ZM280.637 84.75H279.895V88.75H280.637V84.75ZM279.895 84.75H279.154V88.75H279.895V84.75ZM279.154 84.75H278.412V88.75H279.154V84.75ZM278.412 84.75H277.67V88.75H278.412V84.75ZM277.67 84.75H276.929V88.75H277.67V84.75ZM276.929 84.75H276.187V88.75H276.929V84.75ZM276.187 84.75H275.445V88.75H276.187V84.75ZM275.445 84.75H274.704V88.75H275.445V84.75ZM274.704 84.75H273.962V88.75H274.704V84.75ZM273.962 84.75H273.221V88.75H273.962V84.75ZM273.221 84.75H272.479V88.75H273.221V84.75ZM272.479 84.75H271.738V88.75H272.479V84.75ZM271.738 84.75H270.997V88.75H271.738V84.75ZM270.997 84.75H270.256V88.75H270.997V84.75ZM270.256 84.75H269.515V88.75H270.256V84.75ZM269.515 84.75H268.774V88.75H269.515V84.75ZM268.774 84.75H268.033V88.75H268.774V84.75ZM268.033 84.75H267.292V88.75H268.033V84.75ZM267.292 84.75H266.552V88.75H267.292V84.75ZM266.552 84.75H265.812V88.75H266.552V84.75ZM265.812 84.75H265.072V88.75H265.812V84.75ZM265.072 84.75H264.332V88.75H265.072V84.75ZM264.332 84.75H263.593V88.75H264.332V84.75ZM263.593 84.75H262.853V88.75H263.593V84.75ZM262.853 84.75H262.114V88.75H262.853V84.75ZM262.114 84.75H261.376V88.75H262.114V84.75ZM261.376 84.75H260.637V88.75H261.376V84.75ZM260.637 84.75H259.899V88.75H260.637V84.75ZM259.899 84.75H259.161V88.75H259.899V84.75ZM259.161 84.75H258.423V88.75H259.161V84.75ZM258.423 84.75H257.686V88.75H258.423V84.75ZM257.686 84.75H256.949V88.75H257.686V84.75ZM256.949 84.75H256.213V88.75H256.949V84.75ZM256.213 84.75H255.476V88.75H256.213V84.75ZM255.476 84.75H254.741V88.75H255.476V84.75ZM254.741 84.75H254.005V88.75H254.741V84.75ZM254.005 84.75H253.27V88.75H254.005V84.75ZM253.27 84.75H252.535V88.75H253.27V84.75ZM252.535 84.75H251.801V88.75H252.535V84.75ZM251.801 84.75H251.067V88.75H251.801V84.75ZM251.067 84.75H250.334V88.75H251.067V84.75ZM250.334 84.75H249.601V88.75H250.334V84.75ZM249.601 84.75H248.868V88.75H249.601V84.75ZM248.868 84.75H248.136V88.75H248.868V84.75ZM248.136 84.75H247.405V88.75H248.136V84.75ZM247.405 84.75H246.674V88.75H247.405V84.75ZM246.674 84.75H245.943V88.75H246.674V84.75ZM245.943 84.75H245.213V88.75H245.943V84.75ZM245.213 84.75H244.484V88.75H245.213V84.75ZM244.484 84.75H243.755V88.75H244.484V84.75ZM243.755 84.75H243.027V88.75H243.755V84.75ZM243.027 84.75H242.299V88.75H243.027V84.75ZM242.299 84.75H241.572V88.75H242.299V84.75ZM241.572 84.75H240.846V88.75H241.572V84.75ZM240.846 84.75H240.12V88.75H240.846V84.75ZM240.12 84.75H239.394V88.75H240.12V84.75ZM239.394 84.75H238.67V88.75H239.394V84.75ZM238.67 84.75H237.946V88.75H238.67V84.75ZM237.946 84.75H237.223V88.75H237.946V84.75ZM237.223 84.75H236.5V88.75H237.223V84.75ZM236.5 84.75H235.778V88.75H236.5V84.75ZM235.778 84.75H235.057V88.75H235.778V84.75ZM235.057 84.75H234.336V88.75H235.057V84.75ZM234.336 84.75H233.616V88.75H234.336V84.75ZM233.616 84.75H232.897V88.75H233.616V84.75ZM232.897 84.75H232.179V88.75H232.897V84.75ZM232.179 84.75H231.461V88.75H232.179V84.75ZM231.461 84.75H230.744V88.75H231.461V84.75ZM230.744 84.75H230.028V88.75H230.744V84.75ZM230.028 84.75H229.313V88.75H230.028V84.75ZM229.313 84.75H228.599V88.75H229.313V84.75ZM228.599 84.75H227.885V88.75H228.599V84.75ZM227.885 84.75H227.172V88.75H227.885V84.75ZM227.172 84.75H226.46V88.75H227.172V84.75ZM226.46 84.75H225.749V88.75H226.46V84.75ZM225.749 84.75H225.039V88.75H225.749V84.75ZM225.039 84.75H224.33V88.75H225.039V84.75ZM224.33 84.75H223.622V88.75H224.33V84.75ZM223.622 84.75H222.914V88.75H223.622V84.75ZM222.914 84.75H222.207V88.75H222.914V84.75ZM222.207 84.75H221.502V88.75H222.207V84.75ZM221.502 84.75H220.797V88.75H221.502V84.75ZM220.797 84.75H220.093V88.75H220.797V84.75ZM220.093 84.75H219.39V88.75H220.093V84.75ZM219.39 84.75H218.689V88.75H219.39V84.75ZM218.689 84.75H217.988V88.75H218.689V84.75ZM217.988 84.75H217.288V88.75H217.988V84.75ZM217.288 84.75H216.589V88.75H217.288V84.75ZM216.589 84.75H215.891V88.75H216.589V84.75ZM215.891 84.75H215.195V88.75H215.891V84.75ZM215.195 84.75H214.499V88.75H215.195V84.75ZM214.499 84.75H213.804V88.75H214.499V84.75ZM213.804 84.75H213.111V88.75H213.804V84.75ZM213.111 84.75H212.418V88.75H213.111V84.75ZM212.418 84.75H211.727V88.75H212.418V84.75ZM211.727 84.75H211.037V88.75H211.727V84.75ZM211.037 84.75H210.348V88.75H211.037V84.75ZM210.348 84.75H209.66V88.75H210.348V84.75ZM209.66 84.75H208.973V88.75H209.66V84.75ZM208.973 84.75H208.287V88.75H208.973V84.75ZM208.287 84.75H207.603V88.75H208.287V84.75ZM207.603 84.75H206.919V88.75H207.603V84.75ZM206.919 84.75H206.237V88.75H206.919V84.75ZM206.237 84.75H205.556V88.75H206.237V84.75ZM205.556 84.75H204.877V88.75H205.556V84.75ZM204.877 84.75H204.198V88.75H204.877V84.75ZM204.198 84.75H203.521V88.75H204.198V84.75ZM203.521 84.75H202.845V88.75H203.521V84.75ZM202.845 84.75H202.17V88.75H202.845V84.75ZM202.17 84.75H201.497V88.75H202.17V84.75ZM201.497 84.75H200.825V88.75H201.497V84.75ZM200.825 84.75H200.154V88.75H200.825V84.75ZM200.154 84.75H199.484V88.75H200.154V84.75ZM199.484 84.75H198.816V88.75H199.484V84.75ZM198.816 84.75H198.15V88.75H198.816V84.75ZM198.15 84.75H197.484V88.75H198.15V84.75ZM197.484 84.75H196.82V88.75H197.484V84.75ZM196.82 84.75H196.157V88.75H196.82V84.75ZM196.157 84.75H195.496V88.75H196.157V84.75ZM195.496 84.75H194.836V88.75H195.496V84.75ZM194.836 84.75H194.178V88.75H194.836V84.75ZM194.178 84.75H193.521V88.75H194.178V84.75ZM193.521 84.75H192.865V88.75H193.521V84.75ZM192.865 84.75H192.211V88.75H192.865V84.75ZM192.211 84.75H191.558V88.75H192.211V84.75ZM191.558 84.75H190.907V88.75H191.558V84.75ZM190.907 84.75H190.257V88.75H190.907V84.75ZM190.257 84.75H189.609V88.75H190.257V84.75ZM189.609 84.75H188.962V88.75H189.609V84.75ZM188.962 84.75H188.317V88.75H188.962V84.75ZM188.317 84.75H187.674V88.75H188.317V84.75ZM187.674 84.75H187.031V88.75H187.674V84.75ZM187.031 84.75H186.391V88.75H187.031V84.75ZM186.391 84.75H185.752V88.75H186.391V84.75ZM185.752 84.75H185.115V88.75H185.752V84.75ZM185.115 84.75H184.479V88.75H185.115V84.75ZM184.479 84.75H183.845V88.75H184.479V84.75ZM183.845 84.75H183.212V88.75H183.845V84.75ZM183.212 84.75H182.581V88.75H183.212V84.75ZM182.581 84.75H181.952V88.75H182.581V84.75ZM181.952 84.75H181.324V88.75H181.952V84.75ZM181.324 84.75H180.698V88.75H181.324V84.75ZM180.698 84.75H180.074V88.75H180.698V84.75ZM180.074 84.75H179.452V88.75H180.074V84.75ZM179.452 84.75H178.831V88.75H179.452V84.75ZM178.831 84.75H178.212V88.75H178.831V84.75ZM178.212 84.75H177.594V88.75H178.212V84.75ZM177.594 84.75H176.979V88.75H177.594V84.75ZM176.979 84.75H176.365V88.75H176.979V84.75ZM176.365 84.75H175.753V88.75H176.365V84.75ZM175.753 84.75H175.142V88.75H175.753V84.75ZM175.142 84.75H174.534V88.75H175.142V84.75ZM174.534 84.75H173.927V88.75H174.534V84.75ZM173.927 84.75H173.322V88.75H173.927V84.75ZM173.322 84.75H172.719V88.75H173.322V84.75ZM172.719 84.75H172.118V88.75H172.719V84.75ZM172.118 84.75H171.519V88.75H172.118V84.75ZM171.519 84.75H170.921V88.75H171.519V84.75ZM170.921 84.75H170.325V88.75H170.921V84.75ZM170.325 84.75H169.732V88.75H170.325V84.75ZM169.732 84.75H169.14V88.75H169.732V84.75ZM169.14 84.75H168.55V88.75H169.14V84.75ZM168.55 84.75H167.962V88.75H168.55V84.75ZM167.962 84.75H167.376V88.75H167.962V84.75ZM167.376 84.75H166.792V88.75H167.376V84.75ZM166.792 84.75H166.21V88.75H166.792V84.75ZM166.21 84.75H165.63V88.75H166.21V84.75ZM165.63 84.75H165.051V88.75H165.63V84.75ZM165.051 84.75H164.475V88.75H165.051V84.75ZM164.475 84.75H163.901V88.75H164.475V84.75ZM163.901 84.75H163.329V88.75H163.901V84.75ZM163.329 84.75H162.759V88.75H163.329V84.75ZM162.759 84.75H162.191V88.75H162.759V84.75ZM162.191 84.75H161.625V88.75H162.191V84.75ZM161.625 84.75H161.061V88.75H161.625V84.75ZM161.061 84.75H160.499V88.75H161.061V84.75ZM160.499 84.75H159.939V88.75H160.499V84.75ZM159.939 84.75H159.382V88.75H159.939V84.75ZM159.382 84.75H158.826V88.75H159.382V84.75ZM158.826 84.75H158.273V88.75H158.826V84.75ZM158.273 84.75H157.722V88.75H158.273V84.75ZM157.722 84.75H157.173V88.75H157.722V84.75ZM157.173 84.75H156.626V88.75H157.173V84.75ZM156.626 84.75H156.081V88.75H156.626V84.75ZM156.081 84.75H155.538V88.75H156.081V84.75ZM155.538 84.75H154.998V88.75H155.538V84.75ZM154.998 84.75H154.46V88.75H154.998V84.75ZM154.46 84.75H153.924V88.75H154.46V84.75ZM153.924 84.75H153.391V88.75H153.924V84.75ZM153.391 84.75H152.859V88.75H153.391V84.75ZM152.859 84.75H152.33V88.75H152.859V84.75ZM152.33 84.75H151.803V88.75H152.33V84.75ZM151.803 84.75H151.279V88.75H151.803V84.75ZM151.279 84.75H150.757V88.75H151.279V84.75ZM150.757 84.75H150.237V88.75H150.757V84.75ZM150.237 84.75H149.719V88.75H150.237V84.75ZM149.719 84.75H149.204V88.75H149.719V84.75ZM149.204 84.75H148.691V88.75H149.204V84.75ZM148.691 84.75H148.181V88.75H148.691V84.75ZM148.181 84.75H147.673V88.75H148.181V84.75ZM147.673 84.75H147.167V88.75H147.673V84.75ZM147.167 84.75H146.663V88.75H147.167V84.75ZM146.663 84.75H146.163V88.75H146.663V84.75ZM146.163 84.75H145.664V88.75H146.163V84.75ZM145.664 84.75H145.168V88.75H145.664V84.75ZM145.168 84.75H144.674V88.75H145.168V84.75ZM144.674 84.75H144.183V88.75H144.674V84.75ZM144.183 84.75H143.695V88.75H144.183V84.75ZM143.695 84.75H143.208V88.75H143.695V84.75ZM143.208 84.75H142.725V88.75H143.208V84.75ZM142.725 84.75H142.244V88.75H142.725V84.75ZM142.244 84.75H141.765V88.75H142.244V84.75ZM141.765 84.75H141.289V88.75H141.765V84.75ZM141.289 84.75H140.815V88.75H141.289V84.75ZM140.815 84.75H140.344V88.75H140.815V84.75ZM140.344 84.75H139.876V88.75H140.344V84.75ZM139.876 84.75H139.41V88.75H139.876V84.75ZM139.41 84.75H138.947V88.75H139.41V84.75ZM138.947 84.75H138.486V88.75H138.947V84.75ZM138.486 84.75H138.028V88.75H138.486V84.75ZM138.028 84.75H137.573V88.75H138.028V84.75ZM137.573 84.75H137.12V88.75H137.573V84.75ZM137.12 84.75H136.67V88.75H137.12V84.75ZM136.67 84.75H136.222V88.75H136.67V84.75ZM136.222 84.75H135.778V88.75H136.222V84.75ZM135.778 84.75H135.336V88.75H135.778V84.75ZM135.336 84.75H134.896V88.75H135.336V84.75ZM134.896 84.75H134.46V88.75H134.896V84.75ZM134.46 84.75H134.026V88.75H134.46V84.75ZM134.026 84.75H133.595V88.75H134.026V84.75ZM133.595 84.75H133.166V88.75H133.595V84.75ZM133.166 84.75H132.741V88.75H133.166V84.75ZM132.741 84.75H132.318V88.75H132.741V84.75ZM132.318 84.75H131.898V88.75H132.318V84.75ZM131.898 84.75H131.481V88.75H131.898V84.75ZM131.481 84.75H131.066V88.75H131.481V84.75ZM131.066 84.75H130.655V88.75H131.066V84.75ZM130.655 84.75H130.246V88.75H130.655V84.75ZM130.246 84.75H129.84V88.75H130.246V84.75ZM129.84 84.75H129.437V88.75H129.84V84.75ZM129.437 84.75H129.037V88.75H129.437V84.75ZM129.037 84.75H128.639V88.75H129.037V84.75ZM128.639 84.75H128.245V88.75H128.639V84.75ZM128.245 84.75H127.853V88.75H128.245V84.75ZM127.853 84.75H127.465V88.75H127.853V84.75ZM127.465 84.75H127.079V88.75H127.465V84.75ZM127.079 84.75H126.697V88.75H127.079V84.75ZM126.697 84.75H126.317V88.75H126.697V84.75ZM126.317 84.75H125.94V88.75H126.317V84.75ZM125.94 84.75H125.566V88.75H125.94V84.75ZM125.566 84.75H125.196V88.75H125.566V84.75ZM125.196 84.75H124.828V88.75H125.196V84.75ZM124.828 84.75H124.463V88.75H124.828V84.75ZM124.463 84.75H124.102V88.75H124.463V84.75ZM124.102 84.75H123.743V88.75H124.102V84.75ZM123.743 84.75H123.387V88.75H123.743V84.75ZM123.387 84.75H123.035V88.75H123.387V84.75ZM123.035 84.75H122.686V88.75H123.035V84.75ZM122.686 84.75H122.339V88.75H122.686V84.75ZM122.339 84.75H121.996V88.75H122.339V84.75ZM121.996 84.75H121.656V88.75H121.996V84.75ZM121.656 84.75H121.319V88.75H121.656V84.75ZM121.319 84.75H120.985V88.75H121.319V84.75ZM120.985 84.75H120.654V88.75H120.985V84.75ZM120.654 84.75H120.327V88.75H120.654V84.75ZM120.327 84.75H120.003V88.75H120.327V84.75ZM120.003 84.75H119.681V88.75H120.003V84.75ZM119.681 84.75H119.364V88.75H119.681V84.75ZM119.364 84.75H119.049V88.75H119.364V84.75ZM119.049 84.75H118.737V88.75H119.049V84.75ZM118.737 84.75H118.429V88.75H118.737V84.75ZM118.429 84.75H118.124V88.75H118.429V84.75ZM118.124 84.75H117.822V88.75H118.124V84.75ZM117.822 84.75H117.524V88.75H117.822V84.75ZM117.524 84.75H117.229V88.75H117.524V84.75ZM117.229 84.75H116.937V88.75H117.229V84.75ZM116.937 84.75H116.648V88.75H116.937V84.75ZM116.648 84.75H116.363V88.75H116.648V84.75ZM116.363 84.75H116.081V88.75H116.363V84.75ZM116.081 84.75H115.803V88.75H116.081V84.75ZM115.803 84.75H115.528V88.75H115.803V84.75ZM115.528 84.75H115.256V88.75H115.528V84.75ZM115.256 84.75H114.988V88.75H115.256V84.75ZM114.988 84.75H114.723V88.75H114.988V84.75ZM114.723 84.75H114.461V88.75H114.723V84.75ZM114.461 84.75H114.203V88.75H114.461V84.75ZM114.203 84.75H113.948V88.75H114.203V84.75ZM113.948 84.75H113.697V88.75H113.948V84.75ZM113.697 84.75H113.449V88.75H113.697V84.75ZM113.449 84.75H113.205V88.75H113.449V84.75ZM113.205 84.75H112.964V88.75H113.205V84.75ZM112.964 84.75H112.726V88.75H112.964V84.75ZM112.726 84.75H112.493V88.75H112.726V84.75ZM112.493 84.75H112.262V88.75H112.493V84.75ZM112.262 84.75H112.035V88.75H112.262V84.75ZM112.035 84.75H111.812V88.75H112.035V84.75ZM111.812 84.75H111.593V88.75H111.812V84.75ZM111.593 84.75H111.376V88.75H111.593V84.75ZM111.376 84.75H111.164V88.75H111.376V84.75ZM111.164 84.75H110.955V88.75H111.164V84.75ZM110.955 84.75H110.75V88.75H110.955V84.75ZM110.75 84.75H110.548V88.75H110.75V84.75ZM110.548 84.75H110.35V88.75H110.548V84.75ZM110.35 84.75H110.155V88.75H110.35V84.75ZM110.155 84.75H109.964V88.75H110.155V84.75ZM109.964 84.75H109.777V88.75H109.964V84.75ZM109.777 84.75H109.594V88.75H109.777V84.75ZM109.594 84.75H109.414V88.75H109.594V84.75ZM109.414 84.75H109.238V88.75H109.414V84.75ZM109.238 84.75H109.066V88.75H109.238V84.75ZM109.066 84.75H108.897V88.75H109.066V84.75ZM108.897 84.75H108.732V88.75H108.897V84.75ZM108.732 84.75H108.571V88.75H108.732V84.75ZM108.571 84.75H108.414V88.75H108.571V84.75ZM108.414 84.75H108.26V88.75H108.414V84.75ZM108.26 84.75H108.11V88.75H108.26V84.75ZM108.11 84.75H107.964V88.75H108.11V84.75ZM107.964 84.75H107.822V88.75H107.964V84.75ZM107.822 84.75H107.684V88.75H107.822V84.75ZM107.684 84.75H107.549V88.75H107.684V84.75ZM107.549 84.75H107.419V88.75H107.549V84.75ZM107.419 84.75H107.292V88.75H107.419V84.75ZM107.292 84.75H107.169V88.75H107.292V84.75ZM107.169 84.75H107.05V88.75H107.169V84.75ZM107.05 84.75H106.935V88.75H107.05V84.75ZM106.935 84.75H106.823V88.75H106.935V84.75ZM106.823 84.75H106.716V88.75H106.823V84.75ZM106.716 84.75H106.613V88.75H106.716V84.75ZM106.613 84.75H106.513V88.75H106.613V84.75ZM106.513 84.75H106.418V88.75H106.513V84.75ZM106.418 84.75H106.326V88.75H106.418V84.75ZM106.326 84.75H106.239V88.75H106.326V84.75ZM106.239 84.75H106.155V88.75H106.239V84.75ZM106.155 84.75H106.076V88.75H106.155V84.75ZM106.076 84.75H106V88.75H106.076V84.75ZM104 86.75V87.25H108V86.75H104ZM106 89.25H106.076V85.25H106V89.25ZM106.076 89.25H106.155V85.25H106.076V89.25ZM106.155 89.25H106.239V85.25H106.155V89.25ZM106.239 89.25H106.326V85.25H106.239V89.25ZM106.326 89.25H106.418V85.25H106.326V89.25ZM106.418 89.25H106.513V85.25H106.418V89.25ZM106.513 89.25H106.613V85.25H106.513V89.25ZM106.613 89.25H106.716V85.25H106.613V89.25ZM106.716 89.25H106.823V85.25H106.716V89.25ZM106.823 89.25H106.935V85.25H106.823V89.25ZM106.935 89.25H107.05V85.25H106.935V89.25ZM107.05 89.25H107.169V85.25H107.05V89.25ZM107.169 89.25H107.292V85.25H107.169V89.25ZM107.292 89.25H107.419V85.25H107.292V89.25ZM107.419 89.25H107.549V85.25H107.419V89.25ZM107.549 89.25H107.684V85.25H107.549V89.25ZM107.684 89.25H107.822V85.25H107.684V89.25ZM107.822 89.25H107.964V85.25H107.822V89.25ZM107.964 89.25H108.11V85.25H107.964V89.25ZM108.11 89.25H108.26V85.25H108.11V89.25ZM108.26 89.25H108.414V85.25H108.26V89.25ZM108.414 89.25H108.571V85.25H108.414V89.25ZM108.571 89.25H108.732V85.25H108.571V89.25ZM108.732 89.25H108.897V85.25H108.732V89.25ZM108.897 89.25H109.066V85.25H108.897V89.25ZM109.066 89.25H109.238V85.25H109.066V89.25ZM109.238 89.25H109.414V85.25H109.238V89.25ZM109.414 89.25H109.594V85.25H109.414V89.25ZM109.594 89.25H109.777V85.25H109.594V89.25ZM109.777 89.25H109.964V85.25H109.777V89.25ZM109.964 89.25H110.155V85.25H109.964V89.25ZM110.155 89.25H110.35V85.25H110.155V89.25ZM110.35 89.25H110.548V85.25H110.35V89.25ZM110.548 89.25H110.75V85.25H110.548V89.25ZM110.75 89.25H110.955V85.25H110.75V89.25ZM110.955 89.25H111.164V85.25H110.955V89.25ZM111.164 89.25H111.376V85.25H111.164V89.25ZM111.376 89.25H111.593V85.25H111.376V89.25ZM111.593 89.25H111.812V85.25H111.593V89.25ZM111.812 89.25H112.035V85.25H111.812V89.25ZM112.035 89.25H112.262V85.25H112.035V89.25ZM112.262 89.25H112.493V85.25H112.262V89.25ZM112.493 89.25H112.726V85.25H112.493V89.25ZM112.726 89.25H112.964V85.25H112.726V89.25ZM112.964 89.25H113.205V85.25H112.964V89.25ZM113.205 89.25H113.449V85.25H113.205V89.25ZM113.449 89.25H113.697V85.25H113.449V89.25ZM113.697 89.25H113.948V85.25H113.697V89.25ZM113.948 89.25H114.203V85.25H113.948V89.25ZM114.203 89.25H114.461V85.25H114.203V89.25ZM114.461 89.25H114.723V85.25H114.461V89.25ZM114.723 89.25H114.988V85.25H114.723V89.25ZM114.988 89.25H115.256V85.25H114.988V89.25ZM115.256 89.25H115.528V85.25H115.256V89.25ZM115.528 89.25H115.803V85.25H115.528V89.25ZM115.803 89.25H116.081V85.25H115.803V89.25ZM116.081 89.25H116.363V85.25H116.081V89.25ZM116.363 89.25H116.648V85.25H116.363V89.25ZM116.648 89.25H116.937V85.25H116.648V89.25ZM116.937 89.25H117.229V85.25H116.937V89.25ZM117.229 89.25H117.524V85.25H117.229V89.25ZM117.524 89.25H117.822V85.25H117.524V89.25ZM117.822 89.25H118.124V85.25H117.822V89.25ZM118.124 89.25H118.429V85.25H118.124V89.25ZM118.429 89.25H118.737V85.25H118.429V89.25ZM118.737 89.25H119.049V85.25H118.737V89.25ZM119.049 89.25H119.364V85.25H119.049V89.25ZM119.364 89.25H119.681V85.25H119.364V89.25ZM119.681 89.25H120.003V85.25H119.681V89.25ZM120.003 89.25H120.327V85.25H120.003V89.25ZM120.327 89.25H120.654V85.25H120.327V89.25ZM120.654 89.25H120.985V85.25H120.654V89.25ZM120.985 89.25H121.319V85.25H120.985V89.25ZM121.319 89.25H121.656V85.25H121.319V89.25ZM121.656 89.25H121.996V85.25H121.656V89.25ZM121.996 89.25H122.339V85.25H121.996V89.25ZM122.339 89.25H122.686V85.25H122.339V89.25ZM122.686 89.25H123.035V85.25H122.686V89.25ZM123.035 89.25H123.387V85.25H123.035V89.25ZM123.387 89.25H123.743V85.25H123.387V89.25ZM123.743 89.25H124.102V85.25H123.743V89.25ZM124.102 89.25H124.463V85.25H124.102V89.25ZM124.463 89.25H124.828V85.25H124.463V89.25ZM124.828 89.25H125.196V85.25H124.828V89.25ZM125.196 89.25H125.566V85.25H125.196V89.25ZM125.566 89.25H125.94V85.25H125.566V89.25ZM125.94 89.25H126.317V85.25H125.94V89.25ZM126.317 89.25H126.697V85.25H126.317V89.25ZM126.697 89.25H127.079V85.25H126.697V89.25ZM127.079 89.25H127.465V85.25H127.079V89.25ZM127.465 89.25H127.853V85.25H127.465V89.25ZM127.853 89.25H128.245V85.25H127.853V89.25ZM128.245 89.25H128.639V85.25H128.245V89.25ZM128.639 89.25H129.037V85.25H128.639V89.25ZM129.037 89.25H129.437V85.25H129.037V89.25ZM129.437 89.25H129.84V85.25H129.437V89.25ZM129.84 89.25H130.246V85.25H129.84V89.25ZM130.246 89.25H130.655V85.25H130.246V89.25ZM130.655 89.25H131.066V85.25H130.655V89.25ZM131.066 89.25H131.481V85.25H131.066V89.25ZM131.481 89.25H131.898V85.25H131.481V89.25ZM131.898 89.25H132.318V85.25H131.898V89.25ZM132.318 89.25H132.741V85.25H132.318V89.25ZM132.741 89.25H133.166V85.25H132.741V89.25ZM133.166 89.25H133.595V85.25H133.166V89.25ZM133.595 89.25H134.026V85.25H133.595V89.25ZM134.026 89.25H134.46V85.25H134.026V89.25ZM134.46 89.25H134.896V85.25H134.46V89.25ZM134.896 89.25H135.336V85.25H134.896V89.25ZM135.336 89.25H135.778V85.25H135.336V89.25ZM135.778 89.25H136.222V85.25H135.778V89.25ZM136.222 89.25H136.67V85.25H136.222V89.25ZM136.67 89.25H137.12V85.25H136.67V89.25ZM137.12 89.25H137.573V85.25H137.12V89.25ZM137.573 89.25H138.028V85.25H137.573V89.25ZM138.028 89.25H138.486V85.25H138.028V89.25ZM138.486 89.25H138.947V85.25H138.486V89.25ZM138.947 89.25H139.41V85.25H138.947V89.25ZM139.41 89.25H139.876V85.25H139.41V89.25ZM139.876 89.25H140.344V85.25H139.876V89.25ZM140.344 89.25H140.815V85.25H140.344V89.25ZM140.815 89.25H141.289V85.25H140.815V89.25ZM141.289 89.25H141.765V85.25H141.289V89.25ZM141.765 89.25H142.244V85.25H141.765V89.25ZM142.244 89.25H142.725V85.25H142.244V89.25ZM142.725 89.25H143.208V85.25H142.725V89.25ZM143.208 89.25H143.695V85.25H143.208V89.25ZM143.695 89.25H144.183V85.25H143.695V89.25ZM144.183 89.25H144.674V85.25H144.183V89.25ZM144.674 89.25H145.168V85.25H144.674V89.25ZM145.168 89.25H145.664V85.25H145.168V89.25ZM145.664 89.25H146.163V85.25H145.664V89.25ZM146.163 89.25H146.663V85.25H146.163V89.25ZM146.663 89.25H147.167V85.25H146.663V89.25ZM147.167 89.25H147.673V85.25H147.167V89.25ZM147.673 89.25H148.181V85.25H147.673V89.25ZM148.181 89.25H148.691V85.25H148.181V89.25ZM148.691 89.25H149.204V85.25H148.691V89.25ZM149.204 89.25H149.719V85.25H149.204V89.25ZM149.719 89.25H150.237V85.25H149.719V89.25ZM150.237 89.25H150.757V85.25H150.237V89.25ZM150.757 89.25H151.279V85.25H150.757V89.25ZM151.279 89.25H151.803V85.25H151.279V89.25ZM151.803 89.25H152.33V85.25H151.803V89.25ZM152.33 89.25H152.859V85.25H152.33V89.25ZM152.859 89.25H153.391V85.25H152.859V89.25ZM153.391 89.25H153.924V85.25H153.391V89.25ZM153.924 89.25H154.46V85.25H153.924V89.25ZM154.46 89.25H154.998V85.25H154.46V89.25ZM154.998 89.25H155.538V85.25H154.998V89.25ZM155.538 89.25H156.081V85.25H155.538V89.25ZM156.081 89.25H156.626V85.25H156.081V89.25ZM156.626 89.25H157.173V85.25H156.626V89.25ZM157.173 89.25H157.722V85.25H157.173V89.25ZM157.722 89.25H158.273V85.25H157.722V89.25ZM158.273 89.25H158.826V85.25H158.273V89.25ZM158.826 89.25H159.382V85.25H158.826V89.25ZM159.382 89.25H159.939V85.25H159.382V89.25ZM159.939 89.25H160.499V85.25H159.939V89.25ZM160.499 89.25H161.061V85.25H160.499V89.25ZM161.061 89.25H161.625V85.25H161.061V89.25ZM161.625 89.25H162.191V85.25H161.625V89.25ZM162.191 89.25H162.759V85.25H162.191V89.25ZM162.759 89.25H163.329V85.25H162.759V89.25ZM163.329 89.25H163.901V85.25H163.329V89.25ZM163.901 89.25H164.475V85.25H163.901V89.25ZM164.475 89.25H165.051V85.25H164.475V89.25ZM165.051 89.25H165.63V85.25H165.051V89.25ZM165.63 89.25H166.21V85.25H165.63V89.25ZM166.21 89.25H166.792V85.25H166.21V89.25ZM166.792 89.25H167.376V85.25H166.792V89.25ZM167.376 89.25H167.962V85.25H167.376V89.25ZM167.962 89.25H168.55V85.25H167.962V89.25ZM168.55 89.25H169.14V85.25H168.55V89.25ZM169.14 89.25H169.732V85.25H169.14V89.25ZM169.732 89.25H170.325V85.25H169.732V89.25ZM170.325 89.25H170.921V85.25H170.325V89.25ZM170.921 89.25H171.519V85.25H170.921V89.25ZM171.519 89.25H172.118V85.25H171.519V89.25ZM172.118 89.25H172.719V85.25H172.118V89.25ZM172.719 89.25H173.322V85.25H172.719V89.25ZM173.322 89.25H173.927V85.25H173.322V89.25ZM173.927 89.25H174.534V85.25H173.927V89.25ZM174.534 89.25H175.142V85.25H174.534V89.25ZM175.142 89.25H175.753V85.25H175.142V89.25ZM175.753 89.25H176.365V85.25H175.753V89.25ZM176.365 89.25H176.979V85.25H176.365V89.25ZM176.979 89.25H177.594V85.25H176.979V89.25ZM177.594 89.25H178.212V85.25H177.594V89.25ZM178.212 89.25H178.831V85.25H178.212V89.25ZM178.831 89.25H179.452V85.25H178.831V89.25ZM179.452 89.25H180.074V85.25H179.452V89.25ZM180.074 89.25H180.698V85.25H180.074V89.25ZM180.698 89.25H181.324V85.25H180.698V89.25ZM181.324 89.25H181.952V85.25H181.324V89.25ZM181.952 89.25H182.581V85.25H181.952V89.25ZM182.581 89.25H183.212V85.25H182.581V89.25ZM183.212 89.25H183.845V85.25H183.212V89.25ZM183.845 89.25H184.479V85.25H183.845V89.25ZM184.479 89.25H185.115V85.25H184.479V89.25ZM185.115 89.25H185.752V85.25H185.115V89.25ZM185.752 89.25H186.391V85.25H185.752V89.25ZM186.391 89.25H187.031V85.25H186.391V89.25ZM187.031 89.25H187.674V85.25H187.031V89.25ZM187.674 89.25H188.317V85.25H187.674V89.25ZM188.317 89.25H188.962V85.25H188.317V89.25ZM188.962 89.25H189.609V85.25H188.962V89.25ZM189.609 89.25H190.257V85.25H189.609V89.25ZM190.257 89.25H190.907V85.25H190.257V89.25ZM190.907 89.25H191.558V85.25H190.907V89.25ZM191.558 89.25H192.211V85.25H191.558V89.25ZM192.211 89.25H192.865V85.25H192.211V89.25ZM192.865 89.25H193.521V85.25H192.865V89.25ZM193.521 89.25H194.178V85.25H193.521V89.25ZM194.178 89.25H194.836V85.25H194.178V89.25ZM194.836 89.25H195.496V85.25H194.836V89.25ZM195.496 89.25H196.157V85.25H195.496V89.25ZM196.157 89.25H196.82V85.25H196.157V89.25ZM196.82 89.25H197.484V85.25H196.82V89.25ZM197.484 89.25H198.15V85.25H197.484V89.25ZM198.15 89.25H198.816V85.25H198.15V89.25ZM198.816 89.25H199.484V85.25H198.816V89.25ZM199.484 89.25H200.154V85.25H199.484V89.25ZM200.154 89.25H200.825V85.25H200.154V89.25ZM200.825 89.25H201.497V85.25H200.825V89.25ZM201.497 89.25H202.17V85.25H201.497V89.25ZM202.17 89.25H202.845V85.25H202.17V89.25ZM202.845 89.25H203.521V85.25H202.845V89.25ZM203.521 89.25H204.198V85.25H203.521V89.25ZM204.198 89.25H204.877V85.25H204.198V89.25ZM204.877 89.25H205.556V85.25H204.877V89.25ZM205.556 89.25H206.237V85.25H205.556V89.25ZM206.237 89.25H206.919V85.25H206.237V89.25ZM206.919 89.25H207.603V85.25H206.919V89.25ZM207.603 89.25H208.287V85.25H207.603V89.25ZM208.287 89.25H208.973V85.25H208.287V89.25ZM208.973 89.25H209.66V85.25H208.973V89.25ZM209.66 89.25H210.348V85.25H209.66V89.25ZM210.348 89.25H211.037V85.25H210.348V89.25ZM211.037 89.25H211.727V85.25H211.037V89.25ZM211.727 89.25H212.418V85.25H211.727V89.25ZM212.418 89.25H213.111V85.25H212.418V89.25ZM213.111 89.25H213.804V85.25H213.111V89.25ZM213.804 89.25H214.499V85.25H213.804V89.25ZM214.499 89.25H215.195V85.25H214.499V89.25ZM215.195 89.25H215.891V85.25H215.195V89.25ZM215.891 89.25H216.589V85.25H215.891V89.25ZM216.589 89.25H217.288V85.25H216.589V89.25ZM217.288 89.25H217.988V85.25H217.288V89.25ZM217.988 89.25H218.689V85.25H217.988V89.25ZM218.689 89.25H219.39V85.25H218.689V89.25ZM219.39 89.25H220.093V85.25H219.39V89.25ZM220.093 89.25H220.797V85.25H220.093V89.25ZM220.797 89.25H221.502V85.25H220.797V89.25ZM221.502 89.25H222.207V85.25H221.502V89.25ZM222.207 89.25H222.914V85.25H222.207V89.25ZM222.914 89.25H223.622V85.25H222.914V89.25ZM223.622 89.25H224.33V85.25H223.622V89.25ZM224.33 89.25H225.039V85.25H224.33V89.25ZM225.039 89.25H225.749V85.25H225.039V89.25ZM225.749 89.25H226.46V85.25H225.749V89.25ZM226.46 89.25H227.172V85.25H226.46V89.25ZM227.172 89.25H227.885V85.25H227.172V89.25ZM227.885 89.25H228.599V85.25H227.885V89.25ZM228.599 89.25H229.313V85.25H228.599V89.25ZM229.313 89.25H230.028V85.25H229.313V89.25ZM230.028 89.25H230.744V85.25H230.028V89.25ZM230.744 89.25H231.461V85.25H230.744V89.25ZM231.461 89.25H232.179V85.25H231.461V89.25ZM232.179 89.25H232.897V85.25H232.179V89.25ZM232.897 89.25H233.616V85.25H232.897V89.25ZM233.616 89.25H234.336V85.25H233.616V89.25ZM234.336 89.25H235.057V85.25H234.336V89.25ZM235.057 89.25H235.778V85.25H235.057V89.25ZM235.778 89.25H236.5V85.25H235.778V89.25ZM236.5 89.25H237.223V85.25H236.5V89.25ZM237.223 89.25H237.946V85.25H237.223V89.25ZM237.946 89.25H238.67V85.25H237.946V89.25ZM238.67 89.25H239.394V85.25H238.67V89.25ZM239.394 89.25H240.12V85.25H239.394V89.25ZM240.12 89.25H240.846V85.25H240.12V89.25ZM240.846 89.25H241.572V85.25H240.846V89.25ZM241.572 89.25H242.299V85.25H241.572V89.25ZM242.299 89.25H243.027V85.25H242.299V89.25ZM243.027 89.25H243.755V85.25H243.027V89.25ZM243.755 89.25H244.484V85.25H243.755V89.25ZM244.484 89.25H245.213V85.25H244.484V89.25ZM245.213 89.25H245.943V85.25H245.213V89.25ZM245.943 89.25H246.674V85.25H245.943V89.25ZM246.674 89.25H247.405V85.25H246.674V89.25ZM247.405 89.25H248.136V85.25H247.405V89.25ZM248.136 89.25H248.868V85.25H248.136V89.25ZM248.868 89.25H249.601V85.25H248.868V89.25ZM249.601 89.25H250.334V85.25H249.601V89.25ZM250.334 89.25H251.067V85.25H250.334V89.25ZM251.067 89.25H251.801V85.25H251.067V89.25ZM251.801 89.25H252.535V85.25H251.801V89.25ZM252.535 89.25H253.27V85.25H252.535V89.25ZM253.27 89.25H254.005V85.25H253.27V89.25ZM254.005 89.25H254.741V85.25H254.005V89.25ZM254.741 89.25H255.476V85.25H254.741V89.25ZM255.476 89.25H256.213V85.25H255.476V89.25ZM256.213 89.25H256.949V85.25H256.213V89.25ZM256.949 89.25H257.686V85.25H256.949V89.25ZM257.686 89.25H258.423V85.25H257.686V89.25ZM258.423 89.25H259.161V85.25H258.423V89.25ZM259.161 89.25H259.899V85.25H259.161V89.25ZM259.899 89.25H260.637V85.25H259.899V89.25ZM260.637 89.25H261.376V85.25H260.637V89.25ZM261.376 89.25H262.114V85.25H261.376V89.25ZM262.114 89.25H262.853V85.25H262.114V89.25ZM262.853 89.25H263.593V85.25H262.853V89.25ZM263.593 89.25H264.332V85.25H263.593V89.25ZM264.332 89.25H265.072V85.25H264.332V89.25ZM265.072 89.25H265.812V85.25H265.072V89.25ZM265.812 89.25H266.552V85.25H265.812V89.25ZM266.552 89.25H267.292V85.25H266.552V89.25ZM267.292 89.25H268.033V85.25H267.292V89.25ZM268.033 89.25H268.774V85.25H268.033V89.25ZM268.774 89.25H269.515V85.25H268.774V89.25ZM269.515 89.25H270.256V85.25H269.515V89.25ZM270.256 89.25H270.997V85.25H270.256V89.25ZM270.997 89.25H271.738V85.25H270.997V89.25ZM271.738 89.25H272.479V85.25H271.738V89.25ZM272.479 89.25H273.221V85.25H272.479V89.25ZM273.221 89.25H273.962V85.25H273.221V89.25ZM273.962 89.25H274.704V85.25H273.962V89.25ZM274.704 89.25H275.445V85.25H274.704V89.25ZM275.445 89.25H276.187V85.25H275.445V89.25ZM276.187 89.25H276.929V85.25H276.187V89.25ZM276.929 89.25H277.67V85.25H276.929V89.25ZM277.67 89.25H278.412V85.25H277.67V89.25ZM278.412 89.25H279.154V85.25H278.412V89.25ZM279.154 89.25H279.895V85.25H279.154V89.25ZM279.895 89.25H280.637V85.25H279.895V89.25ZM280.637 89.25H281.379V85.25H280.637V89.25ZM281.379 89.25H282.12V85.25H281.379V89.25ZM282.12 89.25H282.862V85.25H282.12V89.25ZM282.862 89.25H283.603V85.25H282.862V89.25ZM283.603 89.25H284.344V85.25H283.603V89.25ZM284.344 89.25H285.086V85.25H284.344V89.25ZM285.086 89.25H285.827V85.25H285.086V89.25ZM285.827 89.25H286.568V85.25H285.827V89.25ZM286.568 89.25H287.309V85.25H286.568V89.25ZM287.309 89.25H288.049V85.25H287.309V89.25ZM288.049 89.25H288.79V85.25H288.049V89.25ZM288.79 89.25H289.53V85.25H288.79V89.25ZM289.53 89.25H290.27V85.25H289.53V89.25ZM290.27 89.25H291.01V85.25H290.27V89.25ZM291.01 89.25H291.75V85.25H291.01V89.25ZM291.75 89.25H292.49V85.25H291.75V89.25ZM292.49 89.25H293.229V85.25H292.49V89.25ZM293.229 89.25H293.968V85.25H293.229V89.25ZM293.968 89.25H294.707V85.25H293.968V89.25ZM294.707 89.25H295.445V85.25H294.707V89.25ZM295.445 89.25H296.183V85.25H295.445V89.25ZM296.183 89.25H296.921V85.25H296.183V89.25ZM296.921 89.25H297.659V85.25H296.921V89.25ZM297.659 89.25H298.396V85.25H297.659V89.25ZM298.396 89.25H299.133V85.25H298.396V89.25ZM299.133 89.25H299.87V85.25H299.133V89.25ZM299.87 89.25H300.606V85.25H299.87V89.25ZM300.606 89.25H301.342V85.25H300.606V89.25ZM301.342 89.25H302.077V85.25H301.342V89.25ZM302.077 89.25H302.812V85.25H302.077V89.25ZM302.812 89.25H303.547V85.25H302.812V89.25ZM303.547 89.25H304.281V85.25H303.547V89.25ZM304.281 89.25H305.015V85.25H304.281V89.25ZM305.015 89.25H305.748V85.25H305.015V89.25ZM305.748 89.25H306.481V85.25H305.748V89.25ZM306.481 89.25H307.214V85.25H306.481V89.25ZM307.214 89.25H307.946V85.25H307.214V89.25ZM307.946 89.25H308.677V85.25H307.946V89.25ZM308.677 89.25H309.408V85.25H308.677V89.25ZM309.408 89.25H310.139V85.25H309.408V89.25ZM310.139 89.25H310.869V85.25H310.139V89.25ZM310.869 89.25H311.598V85.25H310.869V89.25ZM311.598 89.25H312.327V85.25H311.598V89.25ZM312.327 89.25H313.055V85.25H312.327V89.25ZM313.055 89.25H313.783V85.25H313.055V89.25ZM313.783 89.25H314.51V85.25H313.783V89.25ZM314.51 89.25H315.237V85.25H314.51V89.25ZM315.237 89.25H315.962V85.25H315.237V89.25ZM315.962 89.25H316.688V85.25H315.962V89.25ZM316.688 89.25H317.412V85.25H316.688V89.25ZM317.412 89.25H318.136V85.25H317.412V89.25ZM318.136 89.25H318.86V85.25H318.136V89.25ZM318.86 89.25H319.582V85.25H318.86V89.25ZM319.582 89.25H320.304V85.25H319.582V89.25ZM320.304 89.25H321.026V85.25H320.304V89.25ZM321.026 89.25H321.746V85.25H321.026V89.25ZM321.746 89.25H322.466V85.25H321.746V89.25ZM322.466 89.25H323.185V85.25H322.466V89.25ZM323.185 89.25H323.903V85.25H323.185V89.25ZM323.903 89.25H324.621V85.25H323.903V89.25ZM324.621 89.25H325.338V85.25H324.621V89.25ZM325.338 89.25H326.054V85.25H325.338V89.25ZM326.054 89.25H326.769V85.25H326.054V89.25ZM326.769 89.25H327.483V85.25H326.769V89.25ZM327.483 89.25H328.197V85.25H327.483V89.25ZM328.197 89.25H328.91V85.25H328.197V89.25ZM328.91 89.25H329.622V85.25H328.91V89.25ZM329.622 89.25H330.333V85.25H329.622V89.25ZM330.333 89.25H331.043V85.25H330.333V89.25ZM331.043 89.25H331.752V85.25H331.043V89.25ZM331.752 89.25H332.461V85.25H331.752V89.25ZM332.461 89.25H333.168V85.25H332.461V89.25ZM333.168 89.25H333.875V85.25H333.168V89.25ZM333.875 89.25H334.58V85.25H333.875V89.25ZM334.58 89.25H335.285V85.25H334.58V89.25ZM335.285 89.25H335.989V85.25H335.285V89.25ZM335.989 89.25H336.692V85.25H335.989V89.25ZM336.692 89.25H337.393V85.25H336.692V89.25ZM337.393 89.25H338.094V85.25H337.393V89.25ZM338.094 89.25H338.794V85.25H338.094V89.25ZM338.794 89.25H339.493V85.25H338.794V89.25ZM339.493 89.25H340.191V85.25H339.493V89.25ZM340.191 89.25H340.887V85.25H340.191V89.25ZM340.887 89.25H341.583V85.25H340.887V89.25ZM341.583 89.25H342.278V85.25H341.583V89.25ZM342.278 89.25H342.971V85.25H342.278V89.25ZM342.971 89.25H343.664V85.25H342.971V89.25ZM343.664 89.25H344.355V85.25H343.664V89.25ZM344.355 89.25H345.045V85.25H344.355V89.25ZM345.045 89.25H345.734V85.25H345.045V89.25ZM345.734 89.25H346.422V85.25H345.734V89.25ZM346.422 89.25H347.109V85.25H346.422V89.25ZM347.109 89.25H347.795V85.25H347.109V89.25ZM347.795 89.25H348.479V85.25H347.795V89.25ZM348.479 89.25H349.163V85.25H348.479V89.25ZM349.163 89.25H349.845V85.25H349.163V89.25ZM349.845 89.25H350.526V85.25H349.845V89.25ZM350.526 89.25H351.205V85.25H350.526V89.25ZM351.205 89.25H351.884V85.25H351.205V89.25ZM351.884 89.25H352.561V85.25H351.884V89.25ZM352.561 89.25H353.237V85.25H352.561V89.25ZM353.237 89.25H353.912V85.25H353.237V89.25ZM353.912 89.25H354.585V85.25H353.912V89.25ZM354.585 89.25H355.257V85.25H354.585V89.25ZM355.257 89.25H355.928V85.25H355.257V89.25ZM355.928 89.25H356.597V85.25H355.928V89.25ZM356.597 89.25H357.265V85.25H356.597V89.25ZM357.265 89.25H357.932V85.25H357.265V89.25ZM357.932 89.25H358.598V85.25H357.932V89.25ZM358.598 89.25H359.262V85.25H358.598V89.25ZM359.262 89.25H359.924V85.25H359.262V89.25ZM359.924 89.25H360.586V85.25H359.924V89.25ZM360.586 89.25H361.246V85.25H360.586V89.25ZM361.246 89.25H361.904V85.25H361.246V89.25ZM361.904 89.25H362.561V85.25H361.904V89.25ZM362.561 89.25H363.217V85.25H362.561V89.25ZM363.217 89.25H363.871V85.25H363.217V89.25ZM363.871 89.25H364.524V85.25H363.871V89.25ZM364.524 89.25H365.175V85.25H364.524V89.25ZM365.175 89.25H365.824V85.25H365.175V89.25ZM365.824 89.25H366.473V85.25H365.824V89.25ZM366.473 89.25H367.119V85.25H366.473V89.25ZM367.119 89.25H367.765V85.25H367.119V89.25ZM367.765 89.25H368.408V85.25H367.765V89.25ZM368.408 89.25H369.05V85.25H368.408V89.25ZM369.05 89.25H369.691V85.25H369.05V89.25ZM369.691 89.25H370.33V85.25H369.691V89.25ZM370.33 89.25H370.967V85.25H370.33V89.25ZM370.967 89.25H371.603V85.25H370.967V89.25ZM371.603 89.25H372.237V85.25H371.603V89.25ZM372.237 89.25H372.869V85.25H372.237V89.25ZM372.869 89.25H373.5V85.25H372.869V89.25ZM373.5 89.25H374.13V85.25H373.5V89.25ZM374.13 89.25H374.757V85.25H374.13V89.25ZM374.757 89.25H375.383V85.25H374.757V89.25ZM375.383 89.25H376.007V85.25H375.383V89.25ZM376.007 89.25H376.63V85.25H376.007V89.25ZM376.63 89.25H377.251V85.25H376.63V89.25ZM377.251 89.25H377.87V85.25H377.251V89.25ZM377.87 89.25H378.487V85.25H377.87V89.25ZM378.487 89.25H379.103V85.25H378.487V89.25ZM379.103 89.25H379.717V85.25H379.103V89.25ZM379.717 89.25H380.329V85.25H379.717V89.25ZM380.329 89.25H380.939V85.25H380.329V89.25ZM380.939 89.25H381.547V85.25H380.939V89.25ZM381.547 89.25H382.154V85.25H381.547V89.25ZM382.154 89.25H382.759V85.25H382.154V89.25ZM382.759 89.25H383.362V85.25H382.759V89.25ZM383.362 89.25H383.963V85.25H383.362V89.25ZM383.963 89.25H384.563V85.25H383.963V89.25ZM384.563 89.25H385.16V85.25H384.563V89.25ZM385.16 89.25H385.756V85.25H385.16V89.25ZM385.756 89.25H386.35V85.25H385.756V89.25ZM386.35 89.25H386.941V85.25H386.35V89.25ZM386.941 89.25H387.531V85.25H386.941V89.25ZM387.531 89.25H388.119V85.25H387.531V89.25ZM388.119 89.25H388.705V85.25H388.119V89.25ZM388.705 89.25H389.289V85.25H388.705V89.25ZM389.289 89.25H389.872V85.25H389.289V89.25ZM389.872 89.25H390.452V85.25H389.872V89.25ZM390.452 89.25H391.03V85.25H390.452V89.25ZM391.03 89.25H391.606V85.25H391.03V89.25ZM391.606 89.25H392.18V85.25H391.606V89.25ZM392.18 89.25H392.752V85.25H392.18V89.25ZM392.752 89.25H393.322V85.25H392.752V89.25ZM393.322 89.25H393.89V85.25H393.322V89.25ZM393.89 89.25H394.456V85.25H393.89V89.25ZM394.456 89.25H395.02V85.25H394.456V89.25ZM395.02 89.25H395.582V85.25H395.02V89.25ZM395.582 89.25H396.142V85.25H395.582V89.25ZM396.142 89.25H396.699V85.25H396.142V89.25ZM396.699 89.25H397.255V85.25H396.699V89.25ZM397.255 89.25H397.808V85.25H397.255V89.25ZM397.808 89.25H398.359V85.25H397.808V89.25ZM398.359 89.25H398.908V85.25H398.359V89.25ZM398.908 89.25H399.455V85.25H398.908V89.25ZM399.455 89.25H400V85.25H399.455V89.25ZM400 89.25H400.25V85.25H400V89.25ZM402.25 87.25V87H398.25V87.25H402.25ZM402.25 87V49H398.25V87H402.25ZM400.25 47H399.75V51H400.25V47ZM397.75 49V86.2292H401.75V49H397.75ZM401.369 85.0553L374.379 47.8261L371.141 50.1739L398.131 87.4032L401.369 85.0553ZM372.76 47H372.142V51H372.76V47ZM370.523 50.1739L397.484 87.3633L400.723 85.0155L373.762 47.8261L370.523 50.1739ZM400.109 84.4605L336.169 47.2712L334.158 50.7288L398.098 87.9182L400.109 84.4605ZM335.164 47H334.169V51H335.164V47ZM333.164 50.7288L397.171 87.9577L399.183 84.5001L335.175 47.2712L333.164 50.7288ZM398.717 84.3032L266.019 47.0743L264.938 50.9257L397.637 88.1545L398.717 84.3032ZM265.478 47H263.627V51H265.478V47Z" fill="white"/>
<path fill-rule="evenodd" clip-rule="evenodd" d="M262.279 49C262.533 49.2025 262.761 49.4155 262.965 49.6381C263.904 50.6643 264.344 51.9158 264.381 53.3549C264.456 56.2559 262.893 59.8918 260.487 63.8322C258.087 67.7617 254.879 71.9481 251.723 75.9403C251.084 76.7485 250.447 77.5491 249.819 78.3379L249.817 78.3398L249.817 78.34C247.35 81.4406 245.026 84.36 243.295 86.8576L243.705 87.1424C245.427 84.6598 247.736 81.7578 250.202 78.6587C250.832 77.8676 251.472 77.0635 252.115 76.2504C255.271 72.2582 258.496 68.0508 260.913 64.0928C263.324 60.1457 264.96 56.4004 264.881 53.342C264.841 51.8014 264.366 50.4287 263.334 49.3006C263.24 49.1982 263.142 49.098 263.039 49H262.279Z" fill="white"/>
<path d="M262.279 49V46.5H255.14L260.72 50.9539L262.279 49ZM262.965 49.6381L261.12 51.3258L261.12 51.3258L262.965 49.6381ZM264.381 53.3549L266.881 53.2903L266.881 53.2903L264.381 53.3549ZM260.487 63.8322L262.62 65.1351L262.62 65.1351L260.487 63.8322ZM251.723 75.9403L253.684 77.4907L253.684 77.4907L251.723 75.9403ZM249.819 78.3379L247.863 76.7811L247.862 76.7819L249.819 78.3379ZM249.817 78.3398L251.774 79.8962L251.774 79.8958L249.817 78.3398ZM249.817 78.34L251.773 79.8968L251.774 79.8963L249.817 78.34ZM243.295 86.8576L241.24 85.4331L239.816 87.4876L241.87 88.912L243.295 86.8576ZM243.705 87.1424L242.281 89.1969L244.335 90.6214L245.76 88.5669L243.705 87.1424ZM250.202 78.6587L248.246 77.102L248.246 77.102L250.202 78.6587ZM252.115 76.2504L254.076 77.8008L254.076 77.8008L252.115 76.2504ZM260.913 64.0928L263.047 65.3957L263.047 65.3957L260.913 64.0928ZM264.881 53.342L267.38 53.2773L267.38 53.2773L264.881 53.342ZM263.334 49.3006L265.178 47.6128L265.178 47.6128L263.334 49.3006ZM263.039 49L264.766 47.1919L264.041 46.5H263.039V49ZM260.72 50.9539C260.876 51.0788 261.008 51.2033 261.12 51.3258L264.809 47.9504C264.514 47.6277 264.19 47.3263 263.839 47.0461L260.72 50.9539ZM261.12 51.3258C261.593 51.8421 261.858 52.4877 261.882 53.4196L266.881 53.2903C266.83 51.3438 266.215 49.4864 264.809 47.9504L261.12 51.3258ZM261.882 53.4196C261.937 55.5334 260.739 58.6224 258.353 62.5293L262.62 65.1351C265.047 61.1613 266.976 56.9784 266.881 53.2903L261.882 53.4196ZM258.353 62.5293C256.04 66.3163 252.918 70.3973 249.762 74.3898L253.684 77.4907C256.84 73.4988 260.134 69.2072 262.62 65.1351L258.353 62.5293ZM249.762 74.3898C249.125 75.1944 248.491 75.9918 247.863 76.7811L251.775 79.8946C252.402 79.1063 253.042 78.3027 253.684 77.4907L249.762 74.3898ZM247.862 76.7819L247.86 76.7839L251.774 79.8958L251.776 79.8939L247.862 76.7819ZM247.861 76.7835L247.861 76.7837L251.774 79.8963L251.774 79.8962L247.861 76.7835ZM247.861 76.7833C245.41 79.8624 243.029 82.8532 241.24 85.4331L245.349 88.282C247.024 85.8668 249.289 83.0187 251.773 79.8968L247.861 76.7833ZM241.87 88.912L242.281 89.1969L245.13 85.088L244.719 84.8031L241.87 88.912ZM245.76 88.5669C247.424 86.1666 249.675 83.3359 252.159 80.2155L248.246 77.102C245.797 80.1796 243.429 83.1529 241.651 85.718L245.76 88.5669ZM252.159 80.2155C252.788 79.4248 253.43 78.6176 254.076 77.8008L250.154 74.6999C249.514 75.5094 248.876 76.3103 248.246 77.102L252.159 80.2155ZM254.076 77.8008C257.232 73.8089 260.543 69.4962 263.047 65.3957L258.78 62.7899C256.45 66.6054 253.31 70.7075 250.154 74.6999L254.076 77.8008ZM263.047 65.3957C265.478 61.4147 267.48 57.1226 267.38 53.2773L262.382 53.4066C262.441 55.6781 261.169 58.8767 258.78 62.7899L263.047 65.3957ZM267.38 53.2773C267.327 51.2299 266.677 49.2511 265.178 47.6128L261.489 50.9883C262.055 51.6063 262.355 52.373 262.382 53.4066L267.38 53.2773ZM265.178 47.6128C265.046 47.4684 264.908 47.3281 264.766 47.1919L261.313 50.8081C261.375 50.8679 261.434 50.928 261.489 50.9883L265.178 47.6128ZM263.039 46.5H262.279V51.5H263.039V46.5Z" fill="white"/>
<path fill-rule="evenodd" clip-rule="evenodd" d="M330.401 48C330.472 48.118 330.537 48.2358 330.595 48.3532C331.113 49.3983 331.133 50.4322 330.758 51.4365C329.998 53.4727 327.6 55.413 324.308 56.9383C321.033 58.4565 316.931 59.5358 312.857 59.8864C308.78 60.2372 304.756 59.8562 301.621 58.4771L301.391 58.9198C304.266 60.6585 305.582 63.2251 305.726 66.1105C305.87 69.0082 304.831 72.2401 302.96 75.2707C299.214 81.3393 292.204 86.4951 285 86.4951V86.9951C292.429 86.9951 299.579 81.6999 303.385 75.5333C305.291 72.4462 306.376 69.1143 306.225 66.0856C306.101 63.5949 305.141 61.3177 303.135 59.5697C306.052 60.4671 309.473 60.6794 312.9 60.3845C317.027 60.0294 321.186 58.9364 324.519 57.3919C327.836 55.8546 330.394 53.842 331.227 51.6114C331.648 50.4824 331.624 49.3045 331.043 48.1312C331.021 48.0875 330.999 48.0437 330.976 48H330.401ZM335.901 48C339.623 48.5915 343.958 48.7847 347.926 48.312C348.621 48.2291 349.307 48.1257 349.977 48H345.806C344.078 48.1063 342.312 48.0993 340.587 48H335.901Z" fill="white"/>
<path d="M330.401 48V46H326.861L328.688 49.0322L330.401 48ZM330.595 48.3532L332.387 47.4654L332.387 47.4654L330.595 48.3532ZM330.758 51.4365L328.884 50.737L328.884 50.737L330.758 51.4365ZM324.308 56.9383L325.149 58.7529L325.149 58.7529L324.308 56.9383ZM312.857 59.8864L312.686 57.8937L312.686 57.8937L312.857 59.8864ZM301.621 58.4771L302.427 56.6464L300.711 55.8914L299.847 57.5548L301.621 58.4771ZM301.391 58.9198L299.617 57.9976L298.752 59.661L300.356 60.6311L301.391 58.9198ZM305.726 66.1105L307.723 66.011L307.723 66.011L305.726 66.1105ZM302.96 75.2707L301.258 74.2201L301.258 74.2201L302.96 75.2707ZM285 86.4951V84.4951H283V86.4951H285ZM285 86.9951H283V88.9951H285V86.9951ZM303.385 75.5333L305.087 76.5838L305.087 76.5838L303.385 75.5333ZM306.225 66.0856L308.223 65.9862L308.223 65.9862L306.225 66.0856ZM303.135 59.5697L303.723 57.6581L301.821 61.0775L303.135 59.5697ZM312.9 60.3845L313.072 62.3772L313.072 62.3772L312.9 60.3845ZM324.519 57.3919L323.678 55.5773L323.678 55.5773L324.519 57.3919ZM331.227 51.6114L329.353 50.9119L329.353 50.9119L331.227 51.6114ZM331.043 48.1312L332.835 47.2434L332.835 47.2434L331.043 48.1312ZM330.976 48L332.742 47.0618L332.178 46H330.976V48ZM335.901 48V46L335.587 49.9752L335.901 48ZM347.926 48.312L347.69 46.326L347.69 46.326L347.926 48.312ZM349.977 48L350.346 49.9657L349.977 46V48ZM345.806 48V46H345.744L345.683 46.0038L345.806 48ZM340.587 48L340.702 46.0033L340.644 46H340.587V48ZM328.688 49.0322C328.732 49.1048 328.77 49.1744 328.803 49.241L332.387 47.4654C332.304 47.2972 332.213 47.1313 332.114 46.9678L328.688 49.0322ZM328.803 49.241C329.067 49.7735 329.073 50.2318 328.884 50.737L332.632 52.1361C333.193 50.6327 333.159 49.0231 332.387 47.4654L328.803 49.241ZM328.884 50.737C328.666 51.3213 328.146 52.0488 327.195 52.8484C326.258 53.6366 324.997 54.4146 323.467 55.1237L325.149 58.7529C326.911 57.9367 328.495 56.982 329.77 55.9096C331.031 54.8487 332.09 53.588 332.632 52.1361L328.884 50.737ZM323.467 55.1237C320.419 56.5367 316.546 57.5616 312.686 57.8937L313.029 61.879C317.316 61.51 321.647 60.3762 325.149 58.7529L323.467 55.1237ZM312.686 57.8937C308.801 58.228 305.145 57.8427 302.427 56.6464L300.816 60.3077C304.366 61.8696 308.76 62.2463 313.029 61.879L312.686 57.8937ZM299.847 57.5548L299.617 57.9976L303.166 59.842L303.396 59.3993L299.847 57.5548ZM300.356 60.6311C302.628 62.0052 303.615 63.9475 303.728 66.2099L307.723 66.011C307.549 62.5027 305.904 59.3118 302.426 57.2085L300.356 60.6311ZM303.728 66.2099C303.846 68.5839 302.989 71.4161 301.258 74.2201L304.662 76.3212C306.672 73.0642 307.893 69.4326 307.723 66.011L303.728 66.2099ZM301.258 74.2201C297.754 79.8967 291.306 84.4951 285 84.4951V88.4951C293.102 88.4951 300.674 82.7819 304.662 76.3212L301.258 74.2201ZM283 86.4951V86.9951H287V86.4951H283ZM285 88.9951C293.327 88.9951 301.039 83.1421 305.087 76.5838L301.684 74.4828C298.119 80.2577 291.53 84.9951 285 84.9951V88.9951ZM305.087 76.5838C307.133 73.2703 308.399 69.5388 308.223 65.9862L304.228 66.185C304.352 68.6899 303.449 71.622 301.684 74.4828L305.087 76.5838ZM308.223 65.9862C308.075 63.0124 306.907 60.2045 304.449 58.0619L301.821 61.0775C303.374 62.4309 304.128 64.1773 304.228 66.185L308.223 65.9862ZM302.547 61.4813C305.778 62.4754 309.472 62.6869 313.072 62.3772L312.729 58.3919C309.475 58.6719 306.325 58.4588 303.723 57.6581L302.547 61.4813ZM313.072 62.3772C317.413 62.0036 321.8 60.8561 325.36 59.2065L323.678 55.5773C320.572 57.0167 316.642 58.0551 312.729 58.3919L313.072 62.3772ZM325.36 59.2065C328.78 57.6212 331.977 55.319 333.1 52.311L329.353 50.9119C328.81 52.365 326.891 54.0881 323.678 55.5773L325.36 59.2065ZM333.1 52.311C333.708 50.683 333.67 48.9294 332.835 47.2434L329.251 49.0191C329.578 49.6795 329.588 50.2818 329.353 50.9119L333.1 52.311ZM332.835 47.2434C332.805 47.1826 332.774 47.1221 332.742 47.0618L329.209 48.9382C329.224 48.9653 329.238 48.9923 329.251 49.0191L332.835 47.2434ZM330.976 46H330.401V50H330.976V46ZM335.587 49.9752C339.459 50.5907 343.982 50.7959 348.163 50.2979L347.69 46.326C343.934 46.7734 339.786 46.5924 336.214 46.0248L335.587 49.9752ZM348.163 50.2979C348.899 50.2102 349.628 50.1003 350.346 49.9657L349.608 46.0343C348.985 46.1511 348.344 46.248 347.69 46.326L348.163 50.2979ZM349.977 46H345.806V50H349.977V46ZM345.683 46.0038C344.042 46.1047 342.356 46.0985 340.702 46.0033L340.472 49.9967C342.268 50.1001 344.114 50.1078 345.928 49.9962L345.683 46.0038ZM340.587 46H335.901V50H340.587V46Z" fill="white"/>
</svg>
