<?xml version="1.0" encoding="UTF-8" standalone="no"?>
<!-- Created with Inkscape (http://www.inkscape.org/) -->

<svg
   width="512"
   height="512"
   viewBox="0 0 512 512"
   version="1.1"
   id="svg1"
   inkscape:version="1.3.2 (091e20ef0f, 2023-11-25)"
   sodipodi:docname="inexhaustible.svg"
   xml:space="preserve"
   xmlns:inkscape="http://www.inkscape.org/namespaces/inkscape"
   xmlns:sodipodi="http://sodipodi.sourceforge.net/DTD/sodipodi-0.dtd"
   xmlns:xlink="http://www.w3.org/1999/xlink"
   xmlns="http://www.w3.org/2000/svg"
   xmlns:svg="http://www.w3.org/2000/svg"><sodipodi:namedview
     id="namedview1"
     pagecolor="#ffffff"
     bordercolor="#000000"
     borderopacity="0.25"
     inkscape:showpageshadow="2"
     inkscape:pageopacity="0.0"
     inkscape:pagecheckerboard="0"
     inkscape:deskcolor="#d1d1d1"
     inkscape:document-units="px"
     inkscape:zoom="0.81835938"
     inkscape:cx="283.49403"
     inkscape:cy="289.60382"
     inkscape:window-width="1920"
     inkscape:window-height="1044"
     inkscape:window-x="0"
     inkscape:window-y="0"
     inkscape:window-maximized="1"
     inkscape:current-layer="layer1" /><defs
     id="defs1"><linearGradient
       id="linearGradient9"
       inkscape:collect="always"><stop
         style="stop-color:#f0e68c;stop-opacity:1;"
         offset="0.08557073"
         id="stop9" /><stop
         style="stop-color:#ffd700;stop-opacity:0;"
         offset="1"
         id="stop10" /></linearGradient><linearGradient
       inkscape:collect="always"
       xlink:href="#linearGradient9"
       id="linearGradient8"
       x1="485.4129"
       y1="473.60144"
       x2="29.184469"
       y2="47.945522"
       gradientUnits="userSpaceOnUse" /></defs><g
     inkscape:label="Calque 1"
     inkscape:groupmode="layer"
     id="layer1"><ellipse
       style="fill:#ffd700;fill-opacity:1;stroke-width:1.05658"
       id="ellipse7"
       cx="257.02777"
       cy="256.85242"
       rx="253.84863"
       ry="254.43135" /><ellipse
       style="fill:url(#linearGradient8);fill-opacity:1;stroke-width:0.994949"
       id="path1"
       cx="257.23334"
       cy="255.42667"
       rx="238.28508"
       ry="240.34979" /><path
       id="path5"
       style="fill:#ffffff;fill-opacity:0.19521387"
       d="M 129.52734 34.689453 A 255.59056 255.24791 0 0 0 54.595703 98.132812 L 477.14453 380.13477 A 255.59056 255.24791 0 0 0 509.67383 256.84961 A 255.59056 255.24791 0 0 0 507.43945 223.70703 L 129.52734 34.689453 z M 26.296875 142.20703 A 255.59056 255.24791 0 0 0 4.7050781 203.94141 L 331.02148 499.92188 A 255.59056 255.24791 0 0 0 452.71484 416.70312 L 26.296875 142.20703 z " /><path
       sodipodi:type="star"
       style="fill:#ffffff;fill-opacity:0.195214"
       id="path6"
       inkscape:flatsided="false"
       sodipodi:sides="5"
       sodipodi:cx="134.24135"
       sodipodi:cy="89.451706"
       sodipodi:r1="143.65765"
       sodipodi:r2="71.828835"
       sodipodi:arg1="-0.52359878"
       sodipodi:arg2="0.10471976"
       inkscape:rounded="0"
       inkscape:randomized="0"
       d="M 258.65253,17.622878 205.6767,96.959864 240.99979,185.57744 149.1754,159.71091 75.810517,220.6895 72.035753,125.36612 -8.6293339,74.435393 80.862122,41.388834 104.37324,-51.066683 163.45677,23.832801 Z"
       inkscape:transform-center-x="9.2297527"
       inkscape:transform-center-y="-4.6402964"
       transform="translate(237.78729,18.514693)" /><path
       id="path7"
       style="fill:#ffffff;fill-opacity:0.195214;image-rendering:auto"
       inkscape:transform-center-x="-2.8273046"
       inkscape:transform-center-y="13.98198"
       d="M 322.66992,306.74414 222.88086,366.07031 117.43945,317.5 l 25.58594,113.23633 -78.777343,85.27344 115.601563,10.6582 56.75586,101.27148 45.85937,-106.64843 113.85352,-22.6836 -87.25781,-76.57226 z" /><g
       style="fill:#c08100;fill-opacity:1"
       id="g1"
       transform="matrix(1.4322348,0,0,1.713076,87.483253,54.439478)"><g
         id="g3"
         style="fill:#c08100;fill-opacity:1"><path
           d="m 201.094,29.997 c 2.649,-0.623 4.623,-2.996 4.623,-5.835 V 6 c 0,-3.313 -2.687,-6 -6,-6 H 35.603 c -3.313,0 -6,2.687 -6,6 v 18.163 c 0,2.839 1.974,5.212 4.623,5.835 1.812,32.314 18.594,61.928 45.682,80.076 l 11.324,7.586 -11.324,7.586 c -27.089,18.147 -43.871,47.762 -45.682,80.076 -2.649,0.623 -4.623,2.996 -4.623,5.835 v 18.163 c 0,3.313 2.687,6 6,6 h 164.114 c 3.313,0 6,-2.687 6,-6 v -18.163 c 0,-2.839 -1.974,-5.212 -4.623,-5.835 -1.812,-32.314 -18.594,-61.928 -45.683,-80.076 l -11.324,-7.586 11.324,-7.586 C 182.5,91.926 199.282,62.311 201.094,29.997 Z M 41.603,12 h 152.114 v 6.163 H 41.603 Z M 193.717,223.319 H 41.603 v -6.163 H 193.717 Z M 129.968,112.675 c -1.663,1.114 -2.661,2.983 -2.661,4.985 0,2.002 0.998,3.871 2.661,4.985 l 18.765,12.571 c 23.71,15.883 38.49,41.705 40.333,69.941 H 46.254 C 48.097,176.922 62.877,151.1 86.587,135.216 l 18.765,-12.571 c 1.663,-1.114 2.661,-2.983 2.661,-4.985 0,-2.002 -0.998,-3.871 -2.661,-4.985 L 86.587,100.104 C 62.877,84.22 48.097,58.398 46.254,30.163 h 142.812 c -1.843,28.236 -16.623,54.057 -40.333,69.941 z"
           id="path1-3"
           style="fill:#c08100;fill-opacity:1" /><path
           d="m 133.307,82.66 h -31.295 c -2.487,0 -4.717,1.535 -5.605,3.858 -0.888,2.324 -0.25,4.955 1.604,6.613 l 15.647,14 c 1.139,1.019 2.57,1.528 4,1.528 1.43,0 2.862,-0.509 4,-1.528 l 15.647,-14 c 1.854,-1.659 2.492,-4.29 1.604,-6.613 -0.885,-2.323 -3.115,-3.858 -5.602,-3.858 z"
           id="path2"
           style="fill:#c08100;fill-opacity:1" /><path
           d="m 117.414,140.581 -15.218,9.775 C 88.89,159.27 80.904,174.232 80.904,190.248 h 76.511 c 0,-16.016 -7.986,-30.978 -21.292,-39.892 l -15.218,-9.775 c -1.074,-0.644 -2.416,-0.644 -3.491,0 z"
           id="path3"
           style="fill:#c08100;fill-opacity:1" /></g></g></g></svg>
