<?xml version="1.0" encoding="UTF-8" standalone="no"?>
<!-- Created with Inkscape (http://www.inkscape.org/) -->

<svg
   width="512"
   height="512"
   viewBox="0 0 512 512"
   version="1.1"
   id="svg1"
   inkscape:version="1.3.2 (091e20e, 2023-11-25, custom)"
   sodipodi:docname="succes_curieux_argent.svg"
   xml:space="preserve"
   xmlns:inkscape="http://www.inkscape.org/namespaces/inkscape"
   xmlns:sodipodi="http://sodipodi.sourceforge.net/DTD/sodipodi-0.dtd"
   xmlns:xlink="http://www.w3.org/1999/xlink"
   xmlns="http://www.w3.org/2000/svg"
   xmlns:svg="http://www.w3.org/2000/svg"><sodipodi:namedview
     id="namedview1"
     pagecolor="#ffffff"
     bordercolor="#000000"
     borderopacity="0.25"
     inkscape:showpageshadow="2"
     inkscape:pageopacity="0.0"
     inkscape:pagecheckerboard="0"
     inkscape:deskcolor="#d1d1d1"
     inkscape:document-units="px"
     inkscape:zoom="0.81835938"
     inkscape:cx="285.93795"
     inkscape:cy="290.2148"
     inkscape:window-width="1920"
     inkscape:window-height="974"
     inkscape:window-x="-11"
     inkscape:window-y="-11"
     inkscape:window-maximized="1"
     inkscape:current-layer="layer1" /><defs
     id="defs1"><linearGradient
       id="linearGradient9"
       inkscape:collect="always"><stop
         style="stop-color:#a0a0a0;stop-opacity:1;"
         offset="0.08557073"
         id="stop9" /><stop
         style="stop-color:#88b8b2;stop-opacity:0;"
         offset="1"
         id="stop10" /></linearGradient><linearGradient
       inkscape:collect="always"
       xlink:href="#linearGradient9"
       id="linearGradient8"
       x1="294.32907"
       y1="33.546188"
       x2="493.69394"
       y2="480.67203"
       gradientUnits="userSpaceOnUse" /><inkscape:path-effect
       effect="spiro"
       id="path-effect16"
       is_visible="true"
       lpeversion="1" /><inkscape:path-effect
       effect="spiro"
       id="path-effect15"
       is_visible="true"
       lpeversion="1" /></defs><g
     inkscape:label="Calque 1"
     inkscape:groupmode="layer"
     id="layer1"><ellipse
       style="fill:#c3c1bd;fill-opacity:1;stroke-width:1.05658"
       id="ellipse7"
       cx="257.02777"
       cy="256.85242"
       rx="253.84863"
       ry="254.43135" /><ellipse
       style="fill:url(#linearGradient8);fill-opacity:1;stroke-width:0.994949"
       id="path1"
       cx="257.23334"
       cy="255.42667"
       rx="238.28508"
       ry="240.34979" /><path
       id="path5"
       style="fill:#ffffff;fill-opacity:0.19521387"
       d="M 129.52734 34.689453 A 255.59056 255.24791 0 0 0 54.595703 98.132812 L 477.14453 380.13477 A 255.59056 255.24791 0 0 0 509.67383 256.84961 A 255.59056 255.24791 0 0 0 507.43945 223.70703 L 129.52734 34.689453 z M 26.296875 142.20703 A 255.59056 255.24791 0 0 0 4.7050781 203.94141 L 331.02148 499.92188 A 255.59056 255.24791 0 0 0 452.71484 416.70312 L 26.296875 142.20703 z " /><path
       sodipodi:type="star"
       style="fill:#ffffff;fill-opacity:0.195214"
       id="path6"
       inkscape:flatsided="false"
       sodipodi:sides="5"
       sodipodi:cx="134.24135"
       sodipodi:cy="89.451706"
       sodipodi:r1="143.65765"
       sodipodi:r2="71.828835"
       sodipodi:arg1="-0.52359878"
       sodipodi:arg2="0.10471976"
       inkscape:rounded="0"
       inkscape:randomized="0"
       d="M 258.65253,17.622878 205.6767,96.959864 240.99979,185.57744 149.1754,159.71091 75.810517,220.6895 72.035753,125.36612 -8.6293339,74.435393 80.862122,41.388834 104.37324,-51.066683 163.45677,23.832801 Z"
       inkscape:transform-center-x="9.2297527"
       inkscape:transform-center-y="-4.6402964"
       transform="translate(237.78729,18.514693)" /><path
       sodipodi:type="star"
       style="fill:#ffffff;fill-opacity:0.195214"
       id="path7"
       inkscape:flatsided="false"
       sodipodi:sides="5"
       sodipodi:cx="227.45644"
       sodipodi:cy="453.35986"
       sodipodi:r1="174.81958"
       sodipodi:r2="87.409805"
       sodipodi:arg1="0.26179939"
       sodipodi:arg2="0.89011792"
       inkscape:rounded="0"
       inkscape:randomized="0"
       d="M 396.31918,498.6065 282.46521,521.29004 236.60579,627.93986 179.84964,526.66789 64.248298,516.0096 143.02505,430.73654 117.43891,317.49953 222.88176,366.06985 322.67,306.74383 309.06052,422.03499 Z"
       inkscape:transform-center-x="-2.8273046"
       inkscape:transform-center-y="13.98198" /><g
       inkscape:label="Calque 1"
       id="layer1-7"
       transform="matrix(0.93031381,0,0,0.92399731,1.2155677,-8.4391034)"
       style="stroke:#4c4c4c;stroke-width:10;stroke-dasharray:none;stroke-opacity:1"><ellipse
         style="fill:#010000;fill-opacity:0;stroke:#4c4c4c;stroke-width:10;stroke-dasharray:none;stroke-opacity:1"
         id="path1-4"
         cx="266.2894"
         cy="231.3524"
         rx="119.69288"
         ry="114.68627" /><rect
         style="fill:#010000;fill-opacity:0;stroke:#4c4c4c;stroke-width:10;stroke-dasharray:none;stroke-opacity:1"
         id="rect2"
         width="239.22134"
         height="162.55573"
         x="158.94992"
         y="359.99457" /><ellipse
         style="fill:#010000;fill-opacity:0;stroke:#4c4c4c;stroke-width:8.1;stroke-dasharray:none;stroke-opacity:1"
         id="path4"
         cx="314.46872"
         cy="213.46802"
         rx="36.474121"
         ry="37.854202" /><rect
         style="fill:#010000;fill-opacity:0;stroke:#4c4c4c;stroke-width:10;stroke-dasharray:none;stroke-opacity:1"
         id="rect5"
         width="133.21771"
         height="18.65542"
         x="414.61368"
         y="-51.447788"
         transform="rotate(41.060053)" /><ellipse
         style="fill:#010000;fill-opacity:0;stroke:#4c4c4c;stroke-width:10;stroke-dasharray:none;stroke-opacity:1"
         id="path5-9"
         cx="215.778"
         cy="216.54704"
         rx="6.5205135"
         ry="14.625487" /><ellipse
         style="fill:#010000;fill-opacity:0;stroke:#4c4c4c;stroke-width:10;stroke-dasharray:none;stroke-opacity:1"
         id="ellipse5"
         cx="314.62717"
         cy="216.86401"
         rx="6.5205135"
         ry="14.625487" /><ellipse
         style="fill:#010000;fill-opacity:0;stroke:#4c4c4c;stroke-width:10;stroke-dasharray:none;stroke-opacity:1"
         id="path6-2"
         cx="275.71478"
         cy="301.28882"
         rx="53.178768"
         ry="13.625139" /><rect
         style="fill:#010000;fill-opacity:0;stroke:#4c4c4c;stroke-width:10;stroke-dasharray:none;stroke-opacity:1"
         id="rect8"
         width="298.7663"
         height="3.5771315"
         x="122.30158"
         y="113.66658" /><rect
         style="fill:#010000;fill-opacity:0;stroke:#4c4c4c;stroke-width:10;stroke-dasharray:none;stroke-opacity:1"
         id="rect9"
         width="194.07584"
         height="59.090588"
         x="179.48747"
         y="49.830379" /><rect
         style="fill:#010000;fill-opacity:0;stroke:#4c4c4c;stroke-width:10;stroke-dasharray:none;stroke-opacity:1"
         id="rect10"
         width="44.737968"
         height="27.168087"
         x="398.60834"
         y="409.34991" /><rect
         style="fill:#010000;fill-opacity:0;stroke:#4c4c4c;stroke-width:10;stroke-dasharray:none;stroke-opacity:1"
         id="rect11"
         width="30.247938"
         height="86.032272"
         x="444.02554"
         y="350.16876" /><ellipse
         style="fill:#010000;fill-opacity:0;stroke:#4c4c4c;stroke-width:10;stroke-dasharray:none;stroke-opacity:1"
         id="path11"
         cx="459.53439"
         cy="330.10965"
         rx="20.551722"
         ry="18.445641" /><path
         style="fill:#010000;fill-opacity:0;stroke:#4c4c4c;stroke-width:10;stroke-dasharray:none;stroke-opacity:1"
         d="m 240.98399,343.37674 c -0.16028,1.49089 -0.40226,2.973 -0.7245,4.43745 -0.31995,1.45404 -0.72085,2.90416 -0.76979,4.39218 -0.0296,0.89885 0.0702,1.79671 0.0872,2.69589 0.017,0.89918 -0.0533,1.81911 -0.40418,2.64717 -0.12197,0.28784 -0.27638,0.56098 -0.40049,0.84791 -0.1241,0.28693 -0.21851,0.59373 -0.21062,0.90625 0.004,0.15626 0.0339,0.3126 0.0958,0.45612 0.0619,0.14352 0.15639,0.27395 0.27879,0.37116 0.1224,0.0972 0.27312,0.16024 0.42906,0.17097 0.15594,0.0107 0.31638,-0.0323 0.44138,-0.12617 0.095,-0.0714 0.16846,-0.17105 0.20843,-0.28295 0.04,-0.1119 0.0463,-0.23557 0.018,-0.35097"
         id="path15"
         inkscape:path-effect="#path-effect15"
         inkscape:original-d="m 240.98399,343.37674 c -0.63021,7.35224 0.22048,0.59013 -0.7245,4.43745 -0.35455,1.44347 -0.48378,2.93358 -0.76979,4.39218 -0.37927,1.93426 -0.66948,3.3791 -0.31697,5.34306 0.014,0.0782 0.46611,2.79408 0.63394,2.62624 0.045,-0.045 -0.0391,-0.36839 0.22641,-0.63392" /><path
         style="fill:#010000;fill-opacity:0;stroke:#4c4c4c;stroke-width:10;stroke-dasharray:none;stroke-opacity:1"
         d="m 310.76254,340.25241 c 0.21651,1.37934 0.18568,2.79714 -0.0906,4.16577 -0.10959,0.54287 -0.25762,1.07946 -0.31697,1.63009 -0.14444,1.33998 0.24214,2.68228 0.2264,4.02993 -0.008,0.70131 -0.1254,1.39696 -0.27169,2.08289 -0.15639,0.73328 -0.34656,1.4604 -0.45405,2.20243 -0.10748,0.74203 -0.13041,1.50642 0.0465,2.23502 0.0494,0.20362 0.11442,0.40434 0.14028,0.61228 0.0259,0.20793 0.009,0.42862 -0.095,0.61029 -0.0386,0.0672 -0.0892,0.12918 -0.11086,0.20361 -0.0109,0.0372 -0.014,0.0774 -0.004,0.11477 0.0102,0.0374 0.0347,0.0717 0.0693,0.0891 0.0179,0.009 0.038,0.0134 0.0581,0.0139 0.0201,5e-4 0.0401,-0.003 0.0594,-0.008 0.0385,-0.0112 0.0737,-0.0315 0.10891,-0.0508 0.49788,-0.27276 1.0905,-0.36843 1.64893,-0.26619 0.55842,0.10224 1.0787,0.40166 1.44765,0.83313 0.36895,0.43147 0.58396,0.99194 0.59825,1.55946 0.0143,0.56753 -0.17223,1.13811 -0.51899,1.5876 -0.34677,0.44949 -0.85132,0.77473 -1.40389,0.90495 -0.55257,0.13022 -1.14925,0.0645 -1.66024,-0.18286 -0.51098,-0.24736 -0.93265,-0.67461 -1.17328,-1.1888 -0.24062,-0.51418 -0.2985,-1.11168 -0.16103,-1.66249"
         id="path16"
         inkscape:path-effect="#path-effect16"
         inkscape:original-d="m 310.76254,340.25241 c -0.0302,1.38859 0.007,2.78027 -0.0906,4.16577 -0.0388,0.55218 -0.26832,1.07869 -0.31697,1.63009 -0.117,1.32595 0.18403,2.71653 0.2264,4.02993 0.0242,0.75147 -0.19881,1.3396 -0.27169,2.08289 -0.14415,1.47032 -0.27951,2.96527 -0.40753,4.43745 -0.0361,0.41475 0.0796,0.81125 0.0453,1.22257 -0.0166,0.19955 -0.077,0.21694 -0.0453,0.40752 0.0127,0.0759 0.28083,-0.0997 0.22641,-0.0453 -0.23397,0.23396 -1.2226,1.0201 -1.2226,1.5848" /><ellipse
         style="fill:#010000;fill-opacity:0;stroke:#4c4c4c;stroke-width:8;stroke-dasharray:none;stroke-opacity:1"
         id="path17"
         cx="313.93222"
         cy="213.73969"
         rx="45.553032"
         ry="46.412148" /></g></g></svg>
