<?xml version="1.0" encoding="UTF-8" standalone="no"?>
<!-- Created with Inkscape (http://www.inkscape.org/) -->

<svg
   width="512"
   height="512"
   viewBox="0 0 512 512"
   version="1.1"
   id="svg1"
   xml:space="preserve"
   xmlns:xlink="http://www.w3.org/1999/xlink"
   xmlns="http://www.w3.org/2000/svg"
   xmlns:svg="http://www.w3.org/2000/svg"><defs
     id="defs1"><linearGradient
       id="linearGradient9"><stop
         style="stop-color:#217fc5;stop-opacity:1;"
         offset="0.08557073"
         id="stop9" /><stop
         style="stop-color:#3392dc;stop-opacity:1;"
         offset="1"
         id="stop10" /></linearGradient><linearGradient
       xlink:href="#linearGradient9"
       id="linearGradient8"
       x1="485.4129"
       y1="473.60144"
       x2="29.184469"
       y2="47.945522"
       gradientUnits="userSpaceOnUse"
       gradientTransform="translate(0.07986375,0.15972328)" /></defs><g
     id="layer1"><ellipse
       style="fill:#3392dc;fill-opacity:1;stroke-width:1.05658"
       id="ellipse7"
       cx="257.02777"
       cy="256.85242"
       rx="253.84863"
       ry="254.43135" /><ellipse
       style="fill:url(#linearGradient8);fill-opacity:1;stroke-width:0.994949"
       id="path1"
       cx="257.3132"
       cy="255.5864"
       rx="238.28508"
       ry="240.34979" /><path
       id="path5"
       style="fill:#ffffff;fill-opacity:0.195214"
       d="M 128.64884,32.772774 A 255.59056,255.24791 0 0 0 53.717202,96.216133 L 476.26603,378.21809 a 255.59056,255.24791 0 0 0 32.5293,-123.28516 255.59056,255.24791 0 0 0 -2.23438,-33.14258 z M 25.418374,140.29035 A 255.59056,255.24791 0 0 0 3.8265768,202.02473 L 330.14298,498.0052 a 255.59056,255.24791 0 0 0 121.69336,-83.21876 z" /><path
       style="fill:#ffffff;fill-opacity:0.195214"
       id="path6"
       d="M 258.65253,17.622878 205.6767,96.959864 240.99979,185.57744 149.1754,159.71091 75.810517,220.6895 72.035753,125.36612 -8.6293339,74.435393 80.862122,41.388834 104.37324,-51.066683 163.45677,23.832801 Z"
       transform="translate(237.78729,18.514693)" /><path
       id="path7"
       style="fill:#ffffff;fill-opacity:0.195214;image-rendering:auto"
       d="M 322.66992,306.74414 222.88086,366.07031 117.43945,317.5 l 25.58594,113.23633 -78.777343,85.27344 115.601563,10.6582 56.75586,101.27148 45.85937,-106.64843 113.85352,-22.6836 -87.25781,-76.57226 z" /><g
       id="layer1-5"
       transform="matrix(1.1530863,0,0,1.106625,-41.156864,35.859373)"><circle
         id="path1-3"
         style="fill:#000000;stroke:#090753;stroke-opacity:1"
         cx="-32.562927"
         cy="124.70908"
         r="0.34879005" /><ellipse
         style="fill:#f2f2f2;fill-opacity:0.000552248;stroke:#090753;stroke-width:9.45718933;stroke-dasharray:none;stroke-opacity:1"
         id="path2"
         cx="257.1123"
         cy="270.63452"
         rx="97.015282"
         ry="100.27288" /><path
         style="fill:#f2f2f2;fill-opacity:0;stroke:#090753;stroke-width:3.349;stroke-dasharray:none;stroke-opacity:1"
         id="path7-1"
         d="m 344.70465,194.42041 c 8.08489,-6.41253 16.38305,-12.5456 24.73047,-18.60984 11.67197,-8.4086 23.64877,-16.3812 35.7385,-24.1731 0.76626,-0.49009 1.53251,-0.98017 2.29876,-1.47026 9.00551,-5.76001 0.85962,-18.49572 -8.14589,-12.73571 v 0 c -0.78105,0.49958 -1.56209,0.99917 -2.34314,1.49875 -12.32589,7.94489 -24.53569,16.07537 -36.43489,24.64998 -8.46187,6.14952 -16.87644,12.36537 -25.07332,18.86645 -8.4667,6.52624 0.7628,18.49997 9.22951,11.97373 z" /><path
         style="fill:#f2f2f2;fill-opacity:0;stroke:#090753;stroke-width:3.349;stroke-dasharray:none;stroke-opacity:1"
         id="path8"
         d="m 316.43367,143.28528 c -0.76079,-0.27789 -2.77708,-1.12093 -2.92589,-2.01625 -0.0213,-0.12831 0.18474,-0.18315 0.27711,-0.27472 -0.29602,-2.81535 0.38683,-5.96447 2.28217,-8.15767 0.31268,-0.36182 0.77572,-0.55944 1.16358,-0.83916 0.51679,-0.24398 1.71546,-0.98646 2.44324,-0.75986 0.1661,0.0517 0.0276,0.3633 0.12673,0.50627 0.46924,0.67684 1.04946,0.32812 -0.0211,1.01447 -1.09445,-0.43651 -1.3893,-2.23344 -0.58934,-2.99912 0.31164,-0.29827 0.71377,-0.48464 1.07065,-0.72697 3.92973,-0.86585 -3.00294,0.44773 3.99787,0.53997 0.26566,0.004 0.16333,-0.51372 0.16686,-0.77938 0.01,-0.73771 -0.13209,-1.47191 -0.1272,-2.20967 0.02,-3.02105 0.18032,-3.0103 0.81168,-6.0399 0.38768,-1.02776 0.68219,-2.09568 1.16304,-3.08329 1.64474,-3.37812 4.49476,-6.40107 8.15327,-7.54989 0.64864,-0.20368 1.34074,-0.2264 2.01111,-0.3396 1.40156,0.12787 3.65887,0.47907 4.33597,2.01558 0.0342,0.0776 -0.075,0.25981 -0.14362,0.20998 -0.3081,-0.22369 -0.50112,-0.57335 -0.75168,-0.86002 -0.14936,-0.76183 -0.50494,-1.51124 -0.44808,-2.28549 0.14669,-1.99745 1.67304,-4.42864 3.8855,-4.52936 0.36306,-0.0165 0.7217,0.0866 1.08255,0.12988 0.1221,0.022 1.39366,0.27998 1.47963,0.16573 0.43907,-0.58353 0.48631,-1.37718 0.72947,-2.06577 0.46942,-0.8716 0.79038,-1.84132 1.40826,-2.614789 1.11224,-1.3923 4.05875,-3.1756 5.38371,-4.06379 2.13627,-0.97005 4.7871,-2.52795 7.23913,-1.50234 0.21405,0.0895 0.51838,0.26085 0.49288,0.49146 -0.0814,0.73635 -1.39276,-0.56525 -1.96896,-1.03092 -0.29535,-0.97241 -0.86061,-1.90127 -0.88605,-2.917225 -0.0621,-2.47992 2.06519,-5.06146 4.62384,-4.94824 0.35269,0.0156 0.68979,0.15078 1.03468,0.22617 0.22246,0.0711 0.4357,0.24269 0.66737,0.21325 0.2222,-0.0282 1.9265,-2.18818 1.98367,-2.24538 0.43279,-0.43303 0.91824,-0.81 1.37735,-1.21499 7.35698,-7.75577 -3.61133,-18.1601 -10.96831,-10.40434 v 0 c -1.09681,1.23527 -2.34072,2.35417 -3.29043,3.70581 -3.04785,4.3378 -4.80614,9.82994 -3.38254,15.121555 0.46082,1.71293 1.51098,3.20981 2.26647,4.81472 3.29633,2.93974 3.99768,4.498169 8.63591,5.021419 5.31102,0.59915 10.90307,-2.642939 12.01882,-8.157429 0.38502,-1.902925 -0.31638,-3.870065 -0.47458,-5.805095 -0.96055,-1.3928 -1.67606,-2.99134 -2.88165,-4.1784 -5.06671,-4.9889 -13.70925,-4.58562 -19.82657,-2.22615 -1.94246,0.74921 -3.71426,1.88203 -5.5714,2.82304 -4.78108,3.65321 -6.74338,4.52567 -10.13615,9.805285 -3.11606,4.84902 -4.61787,12.276359 -2.80485,17.840959 0.54964,1.68697 1.90532,2.99359 2.85798,4.49038 1.40915,0.96661 2.66183,2.2151 4.22746,2.89983 6.07534,2.65705 13.7722,-0.38834 15.63857,-6.96846 0.45286,-1.59659 0.0492,-3.31878 0.0739,-4.97817 -0.55662,-1.29603 -0.93061,-2.68683 -1.66985,-3.8881 -3.01414,-4.897959 -9.30429,-7.681769 -14.8534,-8.011449 -1.7457,-0.10371 -3.49177,0.20134 -5.23766,0.30201 -1.70806,0.51362 -3.48143,0.84613 -5.12418,1.54086 -7.0779,2.99331 -12.47798,9.044459 -15.47484,16.025269 -0.7411,1.72628 -1.17068,3.57024 -1.75602,5.35536 -0.29461,1.80975 -0.72685,3.60242 -0.88385,5.42927 -0.37932,4.41389 0.1494,12.11443 3.0976,15.70137 1.52727,1.85815 3.49606,3.42472 5.65884,4.47717 1.366,0.66472 3.02127,0.32123 4.53191,0.48185 1.44905,-0.41593 2.98437,-0.60313 4.34714,-1.24781 5.23526,-2.47664 7.99515,-8.73371 6.85144,-14.29851 -0.30538,-1.48589 -1.07787,-2.83597 -1.6168,-4.25395 -0.97167,-1.19412 -1.75841,-2.56632 -2.91501,-3.58235 -4.00439,-3.51765 -9.27306,-4.71666 -14.4645,-3.66576 -3.73771,0.75662 -5.4847,2.46926 -8.49451,4.59537 -1.16694,1.33452 -2.48743,2.54901 -3.50082,4.00357 -3.46858,4.9786 -4.90026,12.00149 -3.82162,17.94746 0.26882,1.48184 0.84328,2.8916 1.26493,4.33739 0.83044,1.37293 1.51742,2.84362 2.49134,4.11879 2.3247,3.04377 6.70691,5.09731 10.32407,6.11411 10.42689,2.35733 13.76064,-12.38852 3.33376,-14.74584 z" /><path
         style="fill:#f2f2f2;fill-opacity:0;stroke:#090753;stroke-width:3.349;stroke-dasharray:none;stroke-opacity:1"
         id="path9"
         d="m 143.24988,187.18165 c -7.9893,-4.35053 -15.61415,-9.32166 -23.26195,-14.236 -11.7179,-7.33124 -23.462257,-14.95939 -36.343937,-20.13883 -2.08833,-0.83968 -4.24268,-1.50477 -6.36402,-2.25715 -7.18898,-1.85492 -3.72287,-1.15196 -10.37835,-2.20514 -10.57096,-1.59112 -12.82116,13.35848 -2.2502,14.9496 v 0 c 4.76257,0.66386 2.21281,0.19476 7.62724,1.52231 1.74248,0.60211 3.51415,1.1256 5.22746,1.80632 12.18538,4.84147 23.231577,12.15 34.309567,19.04172 7.97877,5.1262 15.93883,10.30319 24.2777,14.83402 9.41644,5.06041 16.57292,-8.25645 7.15649,-13.31685 z" /><path
         style="fill:#f2f2f2;fill-opacity:0;stroke:#090753;stroke-width:3.349;stroke-dasharray:none;stroke-opacity:1"
         id="path10"
         d="m 118.00852,233.60859 c -1.24955,-0.48615 -2.86238,-0.83883 -3.72707,-1.96937 -0.36378,-0.47564 -0.0373,-0.41643 0.22884,-0.45713 0.0713,0.48866 1.49779,0.12715 1.4996,0.14282 0.10957,0.94449 -1.89634,1.49673 -2.08115,1.59061 -0.67704,-0.0128 -1.35409,-0.0256 -2.03113,-0.0384 -0.65059,-0.33028 -1.224,-0.93879 -1.95176,-0.99085 -0.30082,-0.0215 -0.26343,0.54336 -0.3724,0.82458 -0.20672,0.53349 -0.32194,1.10397 -0.57393,1.61763 -0.80605,1.64309 -1.26551,1.90861 -2.54049,3.24174 -2.7733,2.09662 -6.640156,3.46687 -9.893496,1.49921 -0.46853,-0.28337 -0.83439,-0.70926 -1.25159,-1.06389 -1.99006,-2.63038 -2.47529,-6.11207 -1.75374,-9.30947 0.10365,-0.4593 0.33612,-0.87967 0.50419,-1.3195 1.66185,4.38098 -7.39748,3.08428 -7.80819,3.05657 -0.33097,-0.0223 -0.75305,-0.5205 -0.9602,-0.26142 -0.27088,0.33882 0.12146,0.86083 0.1343,1.29443 0.018,0.60761 -0.028,1.21543 -0.042,1.82315 -0.44059,2.38544 -1.85587,3.90672 -4.27485,4.37015 -0.71321,0.13664 -1.44914,0.25531 -2.17123,0.17833 -0.9763,-0.10408 -1.90502,-0.47628 -2.85753,-0.71442 -1.48031,-0.48475 -2.99508,-0.87479 -4.44095,-1.45426 -5.38559,-2.15842 -11.24076,-5.49197 -13.90906,-10.92559 -0.41923,-0.85371 -0.57218,-1.81409 -0.85828,-2.72113 -0.23308,-2.78437 0.27648,-5.70365 2.18446,-7.86632 0.19674,-0.22301 0.50837,-0.75397 0.71217,-0.53739 0.20739,0.2204 -0.34197,0.49941 -0.51295,0.74911 -6.05188,1.40945 -4.2904,2.20756 -9.97462,-3.97039 -0.38813,-0.42184 0.0632,-1.31507 -0.38138,-1.67689 -0.27757,-0.22587 -0.53314,0.47754 -0.80148,0.71432 -2.42274,2.13781 -1.1396,1.13257 -4.2125,3.1369 -2.55108,1.14588 -6.56449,2.7903 -8.8352,0.11964 -0.75457,-0.88748 -0.91641,-2.11557 -1.19137,-3.18153 -0.0581,-0.86701 -0.20574,-1.73264 -0.17437,-2.60103 0.1603,-4.43789 1.81658,-9.2605 5.05525,-12.41191 0.43674,-0.42497 1.0196,-0.66766 1.5294,-1.00149 -0.2442,0.3289 -0.33277,0.89759 -0.73261,0.9867 -4.568,1.01805 -4.62245,-0.17099 -7.59094,-3.7447 -0.30062,-0.36191 -0.15352,-1.27984 -0.62381,-1.26612 -0.69103,0.0202 -1.03343,0.9217 -1.59079,1.3307 -0.91946,0.67469 -1.8895,1.27759 -2.83425,1.91638 -1.63488,0.64931 -3.5183,1.94171 -5.42698,1.12163 -0.33371,-0.14338 -0.31322,-0.65541 -0.46983,-0.98312 -10.04724,-3.65101 -15.2105501,10.55793 -5.16331,14.20895 v 0 c 2.40482,0.60308 4.73816,1.68763 7.21447,1.80924 5.50563,0.27038 8.22572,-1.77063 12.89514,-4.04634 3.45852,-2.72023 7.03692,-4.89925 9.10083,-9.01941 1.05136,-2.09881 2.25977,-4.45265 1.92025,-6.77538 -0.9831,-6.72555 -4.62335,-9.52594 -10.96626,-9.25061 -1.94192,0.0843 -3.62217,1.41157 -5.43326,2.11735 -1.33027,1.20576 -2.8096,2.26516 -3.9908,3.61728 -5.59271,6.40194 -8.64905,15.73563 -7.74571,24.20796 0.24395,2.28797 1.06188,4.47769 1.59282,6.71654 1.1708,1.96164 2.0242,4.15168 3.51238,5.88492 6.01075,7.00049 15.12916,8.11371 23.43527,5.13685 1.81914,-0.65197 3.47734,-1.68688 5.21601,-2.53032 1.47493,-1.08118 3.04637,-2.04174 4.42479,-3.24354 6.55183,-5.7123 11.8241,-15.14208 1.06974,-21.13459 -1.80233,-1.00429 -4.10754,0.39488 -6.16131,0.59232 -1.1227,0.77773 -2.36025,1.41148 -3.3681,2.33318 -4.67449,4.27492 -7.03481,11.85732 -6.73476,18.03104 0.10087,2.07548 0.68434,4.09912 1.0265,6.14868 0.86999,1.96894 1.51495,4.05357 2.60998,5.90681 4.74352,8.02799 13.27321,13.52381 21.88172,16.59406 2.344,0.836 4.79537,1.33318 7.19306,1.99976 2.62405,0.13066 5.25798,0.6542 7.87216,0.39196 6.29481,-0.63147 12.11414,-4.5602 15.32548,-9.93438 2.390246,-4.00009 2.18455,-5.90689 2.742136,-10.32023 -0.16115,-1.63393 -0.14522,-3.29515 -0.483436,-4.90179 -0.57564,-2.73442 -2.36761,-7.7138 -4.94045,-9.26132 -5.80153,-3.48953 -8.93751,-2.92888 -13.47982,1.38879 -1.05942,1.00702 -1.3909,2.57123 -2.08635,3.85684 -0.33252,1.38711 -0.79825,2.7489 -0.99756,4.16131 -0.95958,6.80021 0.59996,14.21762 5.01767,19.60308 1.19151,1.45253 2.7347,2.57673 4.10206,3.86509 1.67439,0.885 3.24635,1.99949 5.02318,2.655 7.12422,2.62826 15.258426,1.18892 21.440746,-3.0522 1.53582,-1.05359 2.82174,-2.43167 4.23261,-3.64751 1.1116,-1.50857 2.40872,-2.89667 3.33481,-4.52573 3.89538,-6.85229 4.80942,-16.80332 -1.86754,-22.4701 -1.50863,-1.28039 -3.68364,-1.44644 -5.52546,-2.16966 -1.85177,0.27364 -3.79329,0.18906 -5.55531,0.8209 -5.41312,1.94108 -8.971696,8.77166 -8.807086,14.25807 0.0456,1.51858 0.553866,2.98762 0.830806,4.48143 0.66977,1.24045 1.18901,2.57487 2.0093,3.72136 2.69359,3.76473 7.06798,5.80544 11.35175,7.123 10.32162,2.78228 14.25635,-11.8147 3.93473,-14.59698 z" /><path
         style="fill:#f2f2f2;fill-opacity:0;stroke:#090753;stroke-width:3.349;stroke-dasharray:none;stroke-opacity:1"
         id="path11"
         d="m 183.22414,145.25428 c -2.2781,-1.14332 -4.30193,-2.90699 -5.86337,-4.9177 -0.49062,-0.63178 -0.88831,-1.33053 -1.33247,-1.99579 -0.55535,-1.27636 -1.38742,-2.76457 -1.33689,-4.23748 0.0171,-0.49678 0.32662,-0.94001 0.52565,-1.3955 1.12135,-2.56619 1.90296,-3.42918 3.97669,-5.255 0.12678,0.59601 2.02225,-1.79083 2.67883,-1.0857 0.19609,0.2106 -0.42117,0.48109 -0.70868,0.49297 -0.86829,0.0359 -1.88553,0.16198 -2.58252,-0.35707 -1.42649,-1.0623 -3.20047,-2.33845 -3.40894,-4.10476 -0.28436,-2.40928 1.40139,-4.64521 2.10209,-6.96782 -0.47333,-0.39878 1.77673,-0.69871 1.77537,-1.46623 -3.7e-4,-0.21071 -0.15804,-0.39086 -0.22695,-0.58998 -0.11022,-0.31846 -0.22944,-0.63505 -0.31026,-0.96221 -0.43762,-1.77165 -0.30685,-1.63928 -0.33933,-3.67264 0.14808,-0.8968 0.21286,-1.8114 0.44422,-2.69041 0.80415,-3.05509 2.5491,-6.924539 5.67835,-8.246239 0.2775,-0.11721 0.5977,-0.0757 0.89655,-0.11351 -0.04,0.12566 0.008,0.34583 -0.11992,0.37697 -1.89668,0.46104 -3.89203,-0.12246 -5.05127,-2.01264 -0.88149,-1.4373 -1.25388,-3.24571 -1.1405,-4.92797 0.0844,-1.251785 1.43329,-2.132445 1.69899,-3.358615 0.0671,-0.30991 -0.6274,-0.0926 -0.94109,-0.13894 -1.21508,0.003 -5.85131,-0.17937 -6.46116,-1.53564 -0.15868,-0.35291 0.79135,-0.17241 1.0768,-0.43365 0.58478,-0.53518 1.01056,-3.05056 1.06909,-3.29231 0.9183,-2.88491 2.36144,-5.5328 4.38355,-7.79392 0.48262,-0.53967 1.01057,-1.04369 1.58223,-1.48797 0.13855,-0.10768 0.64866,-0.24218 0.50835,-0.13679 -0.41175,0.30926 -0.89529,0.50909 -1.34293,0.76363 -13.02481,-10.73343 -10.23322,-3.31964 -7.46465,-12.26127 0.0685,-0.2213 -0.44921,0.11393 -0.67567,0.16275 -0.47979,0.10343 -0.95556,0.23483 -1.44279,0.29395 -1.65722,0.20106 -1.63605,0.10334 -3.1905,-0.13288 -0.34243,-0.58995 -0.76794,-1.08232 1.0973,-0.14743 0.46785,0.23449 0.81278,0.65983 1.2063,1.0048 0.35578,0.31188 0.63274,1.20449 1.04082,0.96507 0.97329,-0.57105 1.28864,-1.85445 1.98648,-2.74124 0.99059,-1.25882 2.05068,-2.46137 3.07602,-3.69206 3.00084,-3.03295 3.3649,-3.59922 6.57312,-6.13571 3.71869,-2.94007 8.52504,-3.75719 6.35834,-11.58805 -0.76783,-2.77509 -4.64454,-3.40455 -6.96681,-5.10683 -0.0769,-0.0677 -0.31865,-0.25572 -0.2307,-0.20315 4.03575,2.41237 2.69215,0.90024 4.39902,5.11038 1.80473,-10.53659 -13.09627,-13.08888 -14.901,-2.55228 v 0 c 0.2073,2.36794 -0.36075,4.93945 0.62191,7.10382 1.84077,4.0544 4.1471,4.35962 7.38742,5.41192 -8.01688,-8.23125 -3.41454,-0.69122 -1.30832,-13.26247 0.13089,-0.78124 -1.35512,0.82262 -2.00558,1.27469 -4.29206,2.98299 -8.18862,6.46336 -11.64313,10.3928 -2.29092,2.85351 -6.33974,7.42146 -7.60123,10.95189 -0.90047,2.52007 -1.60437,5.23436 -1.41059,7.90344 0.29494,4.06237 3.52247,7.25156 6.80717,9.06088 1.35955,0.74889 2.97481,0.88729 4.46222,1.33094 1.38854,0.0566 2.77739,0.23334 4.16562,0.16964 2.64489,-0.12135 5.42874,-0.71833 7.88977,-1.70205 1.09901,-0.43929 2.34081,-0.7651 3.15981,-1.61954 1.6845,-1.7574 4.97068,-3.71584 4.15155,-6.00823 -1.42748,-3.99492 -6.24951,-5.73864 -9.37427,-8.60797 -1.04647,0.41148 -2.15593,0.68928 -3.13941,1.23442 -5.04573,2.79684 -9.42445,9.34877 -11.45308,14.56806 -0.74608,1.91951 -1.16312,3.95116 -1.74467,5.92674 -0.28899,5.20989 -1.21634,8.72613 1.67023,13.633705 3.53688,6.013199 9.18769,7.910139 15.67209,8.215529 1.68767,0.0795 3.37556,-0.15394 5.06334,-0.23091 4.45644,-1.20886 8.45216,-1.39485 10.62621,-6.820189 2.05034,-5.116595 -0.65458,-9.268485 -4.81261,-11.599645 -3.276,-1.83665 -5.96542,-0.80267 -9.25946,-0.22459 -1.41156,0.69407 -2.92237,1.21499 -4.23466,2.08223 -6.26779,4.1421 -10.25457,11.501525 -11.44811,18.802724 -0.33124,2.02632 -0.24154,4.09932 -0.36231,6.14898 0.91783,5.00337 0.71772,6.96108 3.68475,11.24906 2.92428,4.22621 8.14328,7.69032 13.496,7.33379 1.84943,-0.12318 3.57773,-0.97062 5.3666,-1.45593 1.42217,-2.81082 4.16256,-5.28405 4.26651,-8.43245 0.0786,-2.3805 -2.01297,-4.47056 -3.78804,-6.05867 -1.29057,-1.15465 -3.18624,-1.491 -4.90312,-1.71712 -4.9721,-0.65485 -9.31261,2.30598 -12.96554,5.16864 -3.18102,3.48398 -4.57675,4.44341 -6.49815,8.92187 -2.48326,5.78805 -2.67132,11.14749 -0.35162,16.99054 0.58909,1.48387 1.45877,2.84035 2.18815,4.26053 0.86879,1.18664 1.66848,2.4271 2.60637,3.55992 3.05501,3.68996 6.97609,6.72387 11.35155,8.66402 9.93779,3.9392 15.50866,-10.11496 5.57087,-14.05415 z" /><path
         style="fill:#f2f2f2;fill-opacity:0;stroke:#090753;stroke-width:3.26964;stroke-dasharray:none;stroke-opacity:1"
         id="path12"
         d="m 240.33806,104.15936 c 5.69574,-4.07407 11.54034,-7.917241 17.32291,-11.855376 6.09221,-4.325022 15.12237,-9.498008 13.92479,-18.741817 -0.24596,-1.898529 -1.4221,-3.533346 -2.13316,-5.300014 -1.0143,-1.089705 -1.93654,-2.281472 -3.04293,-3.269106 -0.90623,-0.808962 -1.92331,-1.483363 -2.96353,-2.092656 -4.67421,-2.737798 -9.38627,-3.110966 -13.73875,1.173988 -1.51317,1.489692 -1.9445,3.836103 -2.91675,5.754155 -1.84121,8.404919 -1.8394,17.087521 -1.97032,25.664449 -0.16078,10.652407 14.29652,10.889317 14.45728,0.236922 v 0 c 0.10312,-6.915152 0.20878,-13.852833 1.08961,-20.718269 -1.45099,0.382246 -4.55757,1.851877 -5.52099,0.365125 -0.15955,-0.246211 0.56304,0.115297 0.82686,0.227923 0.36509,0.155859 0.67797,0.430891 1.04834,0.572618 0.13215,0.05053 0.28151,-0.007 0.42225,-0.01 0.004,-0.558576 -0.12596,-1.135559 0.0105,-1.675738 0.1796,-0.710647 0.50915,-1.386862 0.91527,-1.987664 0.0683,-0.101006 0.31763,0.161519 0.25037,0.263272 -1.91756,2.901061 -6.01708,4.84049 -8.56946,6.924885 -6.31899,4.303709 -12.76678,8.430023 -18.86647,13.06742 -7.73578,6.965974 1.71833,18.365713 9.45412,11.399743 z" /><path
         style="fill:#f2f2f2;fill-opacity:0;stroke:#090753;stroke-width:3.349;stroke-dasharray:none;stroke-opacity:1"
         id="path13"
         d="m 240.81159,75.443456 c -0.0829,6.64829 1.06417,13.22466 2.13444,19.760205 1.73552,10.548219 16.65296,8.093829 14.91744,-2.45439 v 0 c -0.91343,-5.523405 -1.91767,-11.076975 -1.94625,-16.694235 0.43245,-10.68129 -14.67317,-11.29287 -15.10563,-0.61158 z" /><path
         style="fill:#f2f2f2;fill-opacity:0;stroke:#090753;stroke-width:3.349;stroke-dasharray:none;stroke-opacity:1"
         id="path14"
         d="m 244.25576,94.453261 c 3.62254,-1.04881 7.26346,-2.03548 10.89655,-3.04728 10.29813,-2.868005 6.24215,-17.431765 -4.05598,-14.563755 v 0 c -4.00459,1.11528 -8.02837,2.17232 -12.00013,3.40073 -10.0482,3.64836 -4.88864,17.858665 5.15956,14.210305 z" /><path
         style="fill:#f2f2f2;fill-opacity:0;stroke:#090753;stroke-width:3.349;stroke-dasharray:none;stroke-opacity:1"
         id="path15"
         d="m 267.24811,57.282996 c -0.94578,0.41828 -1.97079,0.69045 -2.83734,1.25486 -4.93827,3.21642 -7.08258,7.77642 -8.4848,13.36364 -0.53701,2.13976 -0.73767,4.35014 -1.10651,6.5252 -1.67065,10.55869 13.26159,12.921345 14.93224,2.36266 v 0 c 0.21136,-1.49189 0.37333,-2.99161 0.6341,-4.47566 0.16484,-0.93815 0.4158,-1.85923 0.64164,-2.7846 0.11564,-0.47386 0.60108,-1.20895 0.1017,-1.63476 10.33179,-2.7443 6.45075,-17.35565 -3.88103,-14.61134 z" /><path
         style="fill:#4e4e4e;fill-opacity:0;stroke:#090753;stroke-width:3.349;stroke-dasharray:none;stroke-opacity:1"
         id="path16"
         d="m 402.17742,187.27015 c -3.78235,2.1986 -7.83466,3.98407 -11.41982,6.51474 -0.87974,0.62099 -1.68968,1.33538 -2.53451,2.00307 -2.18872,2.78507 -4.53218,4.76327 -3.44291,9.12089 0.58646,2.34612 2.29799,4.35234 4.05006,6.0192 2.00063,1.90333 7.19502,2.44829 9.93254,2.89997 2.19624,0.98128 -2.15947,-0.94265 -2.41371,-1.43248 -1.08913,-2.09833 -0.82834,-4.66342 -1.47538,-6.93731 -0.0442,-0.15543 -0.35365,-0.0367 -0.48067,0.0632 -0.72909,0.57345 -1.37155,1.2503 -2.02562,1.90802 -0.871,0.87588 -1.6985,1.79396 -2.54776,2.69094 -0.81706,1.11529 -1.75739,2.15001 -2.4512,3.34588 -2.88494,4.97259 -3.47669,9.75328 -0.7549,15.06154 0.82751,1.61388 2.27343,2.8265 3.41014,4.23975 7.30876,7.80122 18.34135,-2.53493 11.03259,-10.33614 v 0 c -1.30785,-0.18978 -0.0567,-0.21918 -1.09864,0.82862 -0.10478,0.10537 -0.41338,0.12054 -0.4451,-0.0246 -0.19579,-0.89601 1.03058,-2.31364 1.32098,-2.75893 0.64247,-0.68949 1.26238,-1.40071 1.92741,-2.06847 0.80764,-0.81095 1.70865,-1.52799 2.48858,-2.36562 1.04823,-1.12575 2.65486,-2.01474 2.98831,-3.51638 0.69174,-3.11504 0.94262,-6.55039 -0.0818,-9.5724 -0.91022,-2.6852 -4.65687,-3.39406 -6.94621,-4.04426 -0.70094,-0.11417 -1.40117,-0.23273 -2.10281,-0.3425 -0.47605,-0.0745 -0.97082,-0.3558 -1.43014,-0.21022 -0.20636,0.0654 0.24482,0.36006 0.33166,0.55836 0.62245,1.42136 1.69664,2.74685 1.79395,4.29547 0.19753,3.14355 -0.45618,3.33157 -1.99692,4.27064 3.47151,-3.09498 8.00178,-4.70903 11.93302,-7.11966 9.25696,-5.34655 1.6958,-18.43787 -7.56116,-13.09132 z" /><path
         style="fill:#f2f2f2;fill-opacity:0;stroke:#090753;stroke-width:3.349;stroke-dasharray:none;stroke-opacity:1"
         id="path17"
         d="m 70.989063,70.964126 c -0.38779,4.63108 -0.51806,10.14273 3.31209,13.6045 1.52117,1.37486 3.58054,1.99914 5.37082,2.99871 5.18227,0.9716 9.87642,-0.38658 14.78419,-1.81091 2.41278,-0.70024 4.98513,-1.81816 7.534417,-1.87878 -3.226757,0.0559 -2.755487,0.49906 -5.940377,-2.84968 -0.44584,-0.46877 -0.2747,-1.32363 -0.70194,-1.80941 -0.20121,-0.22878 -0.0977,0.60507 -0.0894,0.90962 0.0257,0.94148 -0.0442,1.90704 0.19109,2.819 0.35499,1.37608 1.03979,2.64522 1.55969,3.96783 3.683467,3.64981 2.20892,2.82302 6.230497,4.810365 0.65828,0.3253 1.36088,0.55757 2.01148,0.89798 0.83268,0.43568 1.22891,0.61063 0.88951,1.4005 0.44996,2.55155 1.36716,4.97244 2.21459,7.408559 3.56432,10.07832 17.81722,5.03761 14.2529,-5.040709 v 0 c -1.1517,-3.18299 -1.90608,-6.464115 -3.19346,-9.603455 -2.25933,-3.55526 -2.03435,-3.93935 -5.34103,-6.42069 -0.82366,-0.61807 -1.75954,-1.0729 -2.67016,-1.55371 -0.55532,-0.29321 -1.13272,-0.54687 -1.72154,-0.76513 -0.11511,-0.0427 -0.40837,-0.12545 -0.36816,-0.01 0.18628,0.53744 0.58205,0.97743 0.87307,1.46615 0.0929,0.56324 0.23068,1.1209 0.27875,1.68973 0.004,0.0476 -0.13111,0.10522 -0.13111,0.0575 2.2e-4,-2.28002 0.74895,-4.28106 -0.57347,-6.59292 -3.19105,-5.57865 -4.3076,-4.8509 -9.39001,-5.81313 -1.104247,0.14832 -2.220257,0.22618 -3.312727,0.44495 -1.63224,0.32687 -5.19161,1.46485 -6.73664,1.9231 -1.09188,0.32384 -2.18405,0.64708 -3.28143,0.95175 -0.75633,0.20998 -1.56419,0.2681 -2.27915,0.59206 -0.16432,0.0745 -0.11001,0.34362 -0.16501,0.51543 1.10487,1.3548 1.52645,1.38155 1.62298,3.05632 0.006,0.0981 -0.22452,-0.0668 -0.24584,-0.16278 -0.33057,-1.48775 0.1329,-3.06611 0.11962,-4.5578 0.45644,-10.68024 -14.64778,-11.32574 -15.10421,-0.64545 z" /><path
         style="fill:#f2f2f2;fill-opacity:0;stroke:#090753;stroke-width:3.349;stroke-dasharray:none;stroke-opacity:1"
         id="path18"
         d="m 427.26373,71.894566 c -3.74721,0.67123 -7.43372,2.2365 -10.32412,4.7631 -0.70051,0.61234 -1.304,1.3275 -1.95599,1.99125 -1.72015,3.58787 -3.34768,5.2049 -1.53215,9.56763 0.73144,1.75765 2.26532,3.086175 3.64954,4.393185 0.67704,0.63928 1.62386,0.91188 2.44125,1.35788 0.34896,0.19041 1.35909,0.81022 1.05753,0.55121 -0.42784,-0.36748 -0.96232,-0.58847 -1.44348,-0.88271 -2.67834,-4.598915 -1.20041,-1.05186 -1.80061,-5.151225 -0.0104,-0.0708 -0.15769,0.0211 -0.19948,0.0792 -0.27437,0.38127 -0.50031,0.7958 -0.72648,1.2075 -1.18253,2.152585 -0.95253,1.815245 -1.85755,4.230835 -0.14501,1.11499 -0.52694,2.22436 -0.43501,3.34497 0.11842,1.44363 0.44023,2.903909 1.05519,4.215359 0.54564,1.16361 1.47335,2.11742 2.35349,3.05394 0.54249,0.57723 1.26304,0.9567 1.88124,1.452 0.14739,0.11809 0.59197,0.44987 0.41393,0.38688 -0.24897,-0.0881 -0.42671,-0.31125 -0.64007,-0.46687 -0.90955,-1.12802 -0.81907,-1.60239 -0.88711,0.0103 -0.1629,10.6888 14.95335,10.91918 15.11625,0.23038 v 0 c 0.0103,-3.1466 -0.10722,-6.03183 -1.79631,-8.841759 -0.67615,-0.8246 -1.29439,-1.70032 -2.02847,-2.47381 -2.9083,-3.0645 -0.78808,-0.17752 -0.59756,0.50981 0.5466,1.97189 0.37106,1.99908 -0.12567,3.45534 0.13542,-1.10093 1.09295,-2.21162 1.57206,-3.12328 1.23967,-2.35888 2.36807,-4.48835 1.95154,-7.385895 -0.24734,-1.72065 -1.32585,-3.21395 -1.98877,-4.82092 -0.94671,-0.81393 -1.84351,-1.68979 -2.84011,-2.44179 -0.38087,-0.28739 -0.83039,-0.47494 -1.27027,-0.65976 -0.0457,-0.0192 -0.15259,0.027 -0.13039,0.0713 0.48806,0.97368 1.36387,1.78722 1.59543,2.85147 0.65134,2.99363 -0.14428,3.40453 -1.56539,5.40841 -9.1e-4,-0.733 2.31761,-1.72501 3.03932,-1.89635 10.59779,-1.40133 8.61602,-16.38887 -1.98178,-14.98755 z" /><ellipse
         style="fill:#000000;fill-opacity:1;stroke:#090753;stroke-width:2.76864;stroke-dasharray:none;stroke-opacity:1"
         id="path32"
         cx="288.27954"
         cy="248.31369"
         rx="7.3087873"
         ry="16.22879" /><path
         style="fill:#000000;fill-opacity:1;stroke:#090753;stroke-width:3.349;stroke-dasharray:none;stroke-opacity:1"
         d="m 282.15011,237.19205 c 0.19757,-0.79321 0.46973,-1.56782 0.81174,-2.31028 1.48425,-3.22216 4.19475,-5.68973 6.24415,-8.58547 1.38269,-1.95369 2.46273,-4.10154 3.68586,-6.15889 1.22314,-2.05735 2.62057,-4.0589 4.49397,-5.54857 0.80288,-0.63842 1.68545,-1.17637 2.44853,-1.86187 0.76307,-0.68551 1.4173,-1.55841 1.57894,-2.57136 0.0553,-0.34678 0.0515,-0.69993 0.0766,-1.05021 0.0251,-0.35027 0.0818,-0.70619 0.24703,-1.01606 0.0826,-0.15493 0.1922,-0.2966 0.32848,-0.40732 0.13627,-0.11073 0.2998,-0.18976 0.47322,-0.2173 0.17341,-0.0275 0.35647,-0.002 0.51109,0.0812 0.15462,0.0832 0.27865,0.22535 0.3305,0.39311 0.0204,0.066 0.0298,0.13492 0.0495,0.20109 0.0197,0.0662 0.0517,0.13171 0.10662,0.17355 0.038,0.0289 0.085,0.0448 0.13262,0.0489 0.0476,0.004 0.0957,-0.003 0.14138,-0.0169 0.0914,-0.0275 0.17269,-0.0804 0.25675,-0.12574 0.31395,-0.16923 0.67819,-0.23556 1.03428,-0.21542 0.35608,0.0201 0.70438,0.12426 1.02629,0.27782 0.54052,0.25784 1.01105,0.65636 1.36759,1.13753 0.35654,0.48118 0.59977,1.04361 0.72235,1.6298 0.24515,1.17239 10e-4,2.41853 -0.56012,3.47665 -0.79836,1.50518 -2.16916,2.60514 -3.43428,3.74639 -4.55124,4.10562 -8.09402,9.20063 -11.30191,14.42359 -0.41711,0.67912 -0.83023,1.36263 -1.31127,1.99807 -0.3214,0.42456 -0.67856,0.83206 -1.12394,1.12392 -0.5804,0.38034 -1.29908,0.54436 -1.98702,0.4535 -0.68794,-0.0909 -1.3394,-0.43585 -1.80115,-0.95383 -0.46175,-0.51797 -0.72994,-1.20462 -0.7415,-1.89844 -0.0116,-0.69382 0.23361,-1.38902 0.67785,-1.92209 0.44424,-0.53307 1.08384,-0.89957 1.76837,-1.0133 0.68453,-0.11373 1.40828,0.0263 2.00103,0.38706 0.59274,0.36079 1.04954,0.93937 1.26295,1.59965 0.2134,0.66028 0.18165,1.39676 -0.0878,2.03622"
         id="path47"
         transform="matrix(1.2206336,0,0,1.1724466,-61.116194,-40.603096)" /><path
         style="fill:#000000;fill-opacity:1;stroke:#090753;stroke-width:3.349;stroke-dasharray:none;stroke-opacity:1"
         d="m 282.15011,237.19205 c 0.19757,-0.79321 0.46973,-1.56782 0.81174,-2.31028 1.48425,-3.22216 4.19475,-5.68973 6.24415,-8.58547 1.38269,-1.95369 2.46273,-4.10154 3.68586,-6.15889 1.22314,-2.05735 2.62057,-4.0589 4.49397,-5.54857 0.80288,-0.63842 1.68545,-1.17637 2.44853,-1.86187 0.76307,-0.68551 1.4173,-1.55841 1.57894,-2.57136 0.0553,-0.34678 0.0515,-0.69993 0.0766,-1.05021 0.0251,-0.35027 0.0818,-0.70619 0.24703,-1.01606 0.0826,-0.15493 0.1922,-0.2966 0.32848,-0.40732 0.13627,-0.11073 0.2998,-0.18976 0.47322,-0.2173 0.17341,-0.0275 0.35647,-0.002 0.51109,0.0812 0.15462,0.0832 0.27865,0.22535 0.3305,0.39311 0.0204,0.066 0.0298,0.13492 0.0495,0.20109 0.0197,0.0662 0.0517,0.13171 0.10662,0.17355 0.038,0.0289 0.085,0.0448 0.13262,0.0489 0.0476,0.004 0.0957,-0.003 0.14138,-0.0169 0.0914,-0.0275 0.17269,-0.0804 0.25675,-0.12574 0.31395,-0.16923 0.67819,-0.23556 1.03428,-0.21542 0.35608,0.0201 0.70438,0.12426 1.02629,0.27782 0.54052,0.25784 1.01105,0.65636 1.36759,1.13753 0.35654,0.48118 0.59977,1.04361 0.72235,1.6298 0.24515,1.17239 10e-4,2.41853 -0.56012,3.47665 -0.79836,1.50518 -2.16916,2.60514 -3.43428,3.74639 -4.55124,4.10562 -8.09402,9.20063 -11.30191,14.42359 -0.41711,0.67912 -0.83023,1.36263 -1.31127,1.99807 -0.3214,0.42456 -0.67856,0.83206 -1.12394,1.12392 -0.5804,0.38034 -1.29908,0.54436 -1.98702,0.4535 -0.68794,-0.0909 -1.3394,-0.43585 -1.80115,-0.95383 -0.46175,-0.51797 -0.72994,-1.20462 -0.7415,-1.89844 -0.0116,-0.69382 0.23361,-1.38902 0.67785,-1.92209 0.44424,-0.53307 1.08384,-0.89957 1.76837,-1.0133 0.68453,-0.11373 1.40828,0.0263 2.00103,0.38706 0.59274,0.36079 1.04954,0.93937 1.26295,1.59965 0.2134,0.66028 0.18165,1.39676 -0.0878,2.03622"
         id="path49"
         transform="matrix(-1.0759359,0,0,1.1433129,529.84121,-37.557625)" /><ellipse
         style="fill:#09067e;fill-opacity:1;stroke:#090753;stroke-width:2.86817;stroke-dasharray:none;stroke-opacity:1"
         id="ellipse50"
         cx="224.10535"
         cy="246.28439"
         rx="7.8678284"
         ry="16.179028" /><path
         id="path80"
         style="fill:#ffffff;fill-opacity:1;stroke:#090753;stroke-width:3.349;stroke-dasharray:none;stroke-opacity:1"
         d="m 262.07812,296.44531 a 45.124161,28.987045 0 0 0 -45.12304,28.98633 45.124161,28.987045 0 0 0 0.30469,2.98828 h 0.72851 c 0.0387,-1.34159 0.23278,-2.77949 0.63477,-4.32031 0.69293,-2.65605 1.71214,-5.21121 3.52929,-7.31836 1.54509,-1.77293 3.25267,-3.39596 5.12696,-4.82227 2.97945,-2.50883 6.08487,-4.86482 9.80859,-6.17187 2.1768,-0.78468 4.38426,-1.44673 6.62305,-2.0293 1.57401,-0.41443 3.16308,-0.77685 4.68164,-1.3789 2.0843,-0.6982 4.164,-1.41024 6.2832,-1.99805 1.22363,-0.25232 2.42822,-0.58409 3.60938,-0.99024 2.18734,-0.92924 4.44206,-1.60507 6.78125,-1.69726 0.77973,-0.0307 1.56993,0.004 2.36914,0.11523 2.24122,0.3167 4.46471,0.74867 6.61523,1.47071 3.09515,0.93692 6.07218,2.18556 8.80274,3.93945 0.56494,0.38718 1.14823,0.75007 1.69531,1.16211 1.82969,1.37806 3.32564,3.11985 5.10742,4.55469 2.21743,2.06126 4.38096,4.18094 6.44531,6.39648 1.85465,1.8224 3.75808,3.63779 4.91211,6.01563 1.06615,2.15991 1.81258,4.42534 2.1211,6.80468 0.4056,-0.03 0.80373,-0.0458 1.18945,-0.0371 0.91718,0.0207 1.77396,0.15021 2.5664,0.36915 a 45.124161,28.987045 0 0 0 0.3125,-3.05274 45.124161,28.987045 0 0 0 -45.125,-28.98633 z" /><path
         style="fill:#000000;fill-opacity:1;stroke:#090753;stroke-width:2.0016;stroke-dasharray:none;stroke-opacity:1"
         d="m 215.97232,329.00994 c -0.19089,-0.49745 -0.24369,-2.73415 -0.11732,-4.97044 0.32842,-5.81226 2.90447,-10.79435 8.129,-15.72147 18.52417,-17.46967 57.22775,-17.5189 76.04532,-0.0967 5.83599,5.40323 8.07009,9.99784 8.07009,16.59682 v 4.79743 h -3.08355 -3.08356 l -0.37859,-2.39069 c -0.70404,-4.44575 -2.62061,-7.17153 -10.44288,-14.85199 -6.39498,-6.27905 -8.46051,-7.92625 -12.11614,-9.6623 -5.01976,-2.38388 -12.33072,-4.10883 -15.06581,-3.55463 -1.65427,0.33519 -7.82584,2.18305 -23.66513,7.08567 -5.28792,1.63673 -8.42052,3.49423 -13.95831,8.27667 -3.79109,3.274 -6.21265,7.67855 -6.75934,12.29455 -0.32809,2.77019 -0.52008,3.10155 -1.79702,3.10155 -0.78633,0 -1.58587,-0.407 -1.77676,-0.90446 z m 89.79501,-5.22166 c -0.96315,-7.66611 -6.69801,-14.75161 -15.75228,-19.46215 -5.06476,-2.63498 -8.57722,-3.51949 -5.22481,-1.31571 0.98616,0.64827 4.99005,4.34458 8.89752,8.21403 5.37945,5.32709 7.51989,7.9061 8.81518,10.62139 0.94087,1.97232 1.71088,3.92222 1.71114,4.33312 2.5e-4,0.4109 0.43854,0.74709 0.97397,0.74709 0.826,0 0.91378,-0.47544 0.57928,-3.13777 z m -78.38015,-13.57582 c 4.91745,-3.91293 8.14076,-5.45142 16.76143,-8.00022 3.94463,-1.16627 8.24786,-2.53918 9.56274,-3.0509 l 2.39068,-0.93039 -3.57996,0.3632 c -9.15194,0.92849 -20.71563,5.89096 -26.55205,11.39461 -4.22278,3.98201 -3.45774,4.10277 1.41716,0.2237 z"
         id="path98" /><path
         style="fill:#000000;fill-opacity:1;stroke:#090753;stroke-width:2.0016;stroke-dasharray:none;stroke-opacity:1"
         d="m 215.75421,329.60951 c -0.51563,-0.62129 -0.65989,-2.29198 -0.46293,-5.36102 0.40646,-6.33366 2.75865,-10.88341 8.38719,-16.22304 9.14208,-8.67284 22.63967,-13.37364 38.40027,-13.37364 15.75279,0 29.23164,4.7403 38.59504,13.57326 5.68595,5.36383 7.66762,9.45341 8.14403,16.80683 l 0.35504,5.48017 h -3.97333 c -3.44269,0 -3.97333,-0.14515 -3.97333,-1.08686 0,-0.59777 -0.42283,-2.5107 -0.93962,-4.25094 -0.81882,-2.75725 -1.93729,-4.18555 -8.69886,-11.10851 -6.00051,-6.14372 -8.66625,-8.41992 -11.76088,-10.04225 -4.65151,-2.4385 -10.16303,-3.99266 -14.15921,-3.99266 -3.08094,0 -24.8365,6.33817 -29.8864,8.70697 -3.80605,1.78533 -9.54023,6.39794 -12.0591,9.7004 -1.85743,2.43526 -2.34018,3.64799 -3.79505,9.53375 -0.51549,2.08542 -0.87812,2.5401 -2.02584,2.5401 -0.76888,0 -1.73503,-0.40615 -2.14702,-0.90256 z m 89.26392,-6.41891 c -0.50155,-2.69214 -2.62853,-7.6203 -3.28889,-7.6203 -0.30299,0 -0.27029,0.51348 0.0736,1.15605 0.80338,1.50113 0.7842,2.00514 -0.0565,1.48555 -0.37136,-0.22952 -0.55883,-0.17815 -0.41658,0.11414 0.14224,0.2923 0.91675,1.93711 1.72113,3.65514 1.66361,3.55322 2.49966,4.0672 1.96725,1.20942 z m -4.98507,-7.31911 c -0.77081,-0.8205 -1.53326,-1.36005 -1.6943,-1.19901 -0.39677,0.39677 1.72316,2.69083 2.48658,2.69083 0.33507,0 -0.0214,-0.67132 -0.79228,-1.49182 z m -1.53452,-4.46361 c -1.58638,-1.6553 -3.15891,-3.00963 -3.49453,-3.00963 -0.33561,0 0.84409,1.47258 2.62156,3.2724 1.77746,1.79982 3.35,3.15416 3.49452,3.00963 0.14453,-0.14452 -1.03517,-1.6171 -2.62155,-3.2724 z m -6.40851,-4.11522 c 0.0538,-0.71406 -0.64195,-1.45142 -1.96465,-2.08218 -2.46478,-1.17536 -2.59369,-0.73447 -0.44195,1.51147 1.88573,1.96827 2.29404,2.0651 2.4066,0.57071 z m 1.96411,0.50792 c 0,-0.32872 -0.28482,-0.59768 -0.63294,-0.59768 -0.34812,0 -0.46672,0.26896 -0.26356,0.59768 0.20316,0.32871 0.48798,0.59767 0.63294,0.59767 0.14496,0 0.26356,-0.26896 0.26356,-0.59767 z"
         id="path99" /><path
         style="fill:#09067e;fill-opacity:1;stroke:#090753;stroke-width:7.43698;stroke-dasharray:none;stroke-opacity:1"
         d="m 203.65987,280.10923 c -1.78112,-2.67855 -5.59489,-7.33661 -8.47505,-10.35124 -4.34742,-4.55039 -5.19854,-5.81368 -5.01215,-7.43942 0.30581,-2.66742 2.99314,-3.15541 3.62011,-0.65736 0.23793,0.94797 2.08026,3.13122 4.09407,4.85167 2.31295,1.97602 4.91664,5.26495 7.06949,8.93002 1.87441,3.19106 3.83162,6.29888 4.34936,6.90626 0.81263,0.95333 0.7124,1.20866 -0.73305,1.86724 -1.57283,0.71664 -1.87083,0.46751 -4.91278,-4.10717 z"
         id="path19"
         transform="matrix(0.86723778,0,0,0.90364848,35.692787,-32.404268)" /><path
         style="fill:#09067e;fill-opacity:1;stroke:#090753;stroke-width:7.43698;stroke-dasharray:none;stroke-opacity:1"
         d="m 288.64304,324.73261 c -2.12966,-2.53096 -3.13081,-5.74476 -3.67989,-11.81294 -0.46641,-5.1544 0.78377,-12.43205 2.23101,-12.98741 0.52754,-0.20244 1.14356,-0.94904 1.36893,-1.65912 0.38684,-1.21882 0.48633,-1.22496 1.77833,-0.10972 0.75272,0.64972 2.38154,1.33795 3.61961,1.52939 2.12099,0.32797 2.30228,0.58938 3.13824,4.52498 1.51486,7.13179 -0.17223,17.5299 -3.40204,20.96787 -2.03797,2.16932 -2.91367,2.09082 -5.05419,-0.45305 z"
         id="path20"
         transform="matrix(0.86723778,0,0,0.90364848,35.692787,-32.404268)" /><path
         style="fill:#09067e;fill-opacity:1;stroke:#090753;stroke-width:7.43698;stroke-dasharray:none;stroke-opacity:1"
         d="m 298.19307,288.3557 c -1.47468,-0.8314 -1.43249,-0.94793 2.52516,-6.97509 4.67589,-7.12099 6.27735,-8.95405 10.18828,-11.66173 1.57295,-1.089 3.26243,-2.95181 3.75442,-4.13957 0.7219,-1.74283 1.24474,-2.11892 2.70931,-1.94891 1.40158,0.16269 1.86528,0.65004 2.03654,2.14039 0.18908,1.64531 -0.71865,2.82233 -6.15889,7.98599 -3.50935,3.33095 -7.95965,8.17971 -9.88954,10.77502 -1.92989,2.59532 -3.54414,4.70765 -3.58722,4.69409 -0.0431,-0.0136 -0.7532,-0.40516 -1.57806,-0.87019 z"
         id="path21"
         transform="matrix(0.86723778,0,0,0.90364848,35.692787,-32.404268)" /><path
         style="fill:#09067e;fill-opacity:1;stroke:#090753;stroke-width:7.43698;stroke-dasharray:none;stroke-opacity:1"
         d=""
         id="path22"
         transform="matrix(0.86723778,0,0,0.90364848,35.692787,-32.404268)" /><path
         style="fill:#09067e;fill-opacity:1;stroke:#090753;stroke-width:7.43698;stroke-dasharray:none;stroke-opacity:1"
         d=""
         id="path28"
         transform="matrix(0.86723778,0,0,0.90364848,35.692787,-32.404268)" /><path
         style="fill:#09067e;fill-opacity:1;stroke:#090753;stroke-width:8.84452;stroke-dasharray:none;stroke-opacity:1"
         d="m 208.82616,394.63993 c 0.53727,-6.69321 2.99504,-11.22267 9.03757,-16.65542 11.55941,-10.3929 27.87611,-15.30882 47.41537,-14.28537 15.81526,0.8284 28.19596,5.26493 38.40747,13.76303 5.7864,4.81549 8.87449,10.42345 9.72249,17.65603 l 0.55815,4.76046 H 310.666 c -3.22444,0 -3.31381,-0.0789 -3.84381,-3.39327 -0.4624,-2.89173 -1.8426,-4.72636 -9.33822,-12.41278 -9.77239,-10.02116 -13.9644,-13.05265 -21.55814,-15.58998 -6.75062,-2.25561 -11.81816,-2.17024 -21.83055,0.36777 -20.32521,5.15218 -27.07195,8.02077 -34.21185,14.54623 -4.95197,4.52583 -6.67509,7.16029 -8.257,12.62407 -0.52838,1.82498 -1.47318,3.48897 -2.09955,3.69776 -0.91799,0.306 -1.05388,-0.67888 -0.70072,-5.07853 z m 103.27627,-0.34964 c -0.0238,-2.97711 -2.65065,-8.69299 -5.31622,-11.56768 -1.16422,-1.25555 -2.11676,-2.52642 -2.11676,-2.82415 0,-0.29772 -2.51476,-2.25832 -5.58836,-4.35687 -5.70039,-3.89205 -9.31395,-4.87449 -9.31395,-2.53225 0,1.91253 3.80085,5.34376 5.91939,5.34376 2.33575,0 6.53161,3.91966 5.91525,5.52587 -0.25247,0.65792 0.47976,2.19852 1.62718,3.42355 1.14743,1.22502 2.87991,3.81068 3.84996,5.74591 2.12591,4.24118 5.05324,4.96485 5.02351,1.24186 z"
         id="path45"
         transform="matrix(0.86723778,0,0,0.90364848,35.692787,-32.404268)" /><path
         style="fill:#01003b;fill-opacity:0.518539;stroke:#090753;stroke-width:8.84452;stroke-dasharray:none;stroke-opacity:1"
         d="m 214.88148,323.21891 c -3.31515,-3.31515 -4.17937,-6.38048 -4.17937,-14.82388 0,-7.24998 0.24986,-8.7153 2.01017,-11.78865 2.52003,-4.39975 4.51333,-5.12674 7.18219,-2.61948 5.681,5.33702 5.82347,22.63347 0.23544,28.58166 -2.16866,2.30843 -3.43361,2.46517 -5.24843,0.65035 z"
         id="path48"
         transform="matrix(0.86723778,0,0,0.90364848,35.692787,-32.404268)" /><path
         style="fill:#01003b;fill-opacity:0.518539;stroke:#090753;stroke-width:8.84452;stroke-dasharray:none;stroke-opacity:1"
         d="m 290.26386,319.90285 c -0.98086,-2.55609 -1.55758,-10.83437 -0.97218,-13.95483 0.41195,-2.19588 0.94376,-2.9656 1.9192,-2.77775 2.11601,0.40751 2.97915,5.33773 1.988,11.35535 -0.94105,5.71346 -2.03612,7.71973 -2.93502,5.37723 z"
         id="path50"
         transform="matrix(0.86723778,0,0,0.90364848,35.692787,-32.404268)" /></g></g></svg>
