<?xml version="1.0" encoding="utf-8"?>
<svg xmlns="http://www.w3.org/2000/svg" xml:space="preserve" id="Icons" x="0" y="0" version="1.1" viewBox="0 0 48 48">
  <style>
    .st11{fill:#45413c;stroke:#45413c;stroke-linecap:round;stroke-linejoin:round;stroke-miterlimit:10}.st81{fill:#915e3a}
  </style>
  <g id="XMLID_547_">
    <ellipse id="XMLID_570_" cx="24" cy="45.5" fill="#45413c" opacity=".15" rx="11" ry="1.5"/>
    <path id="XMLID_559_" fill="#bf8256" d="M38 24.9c.6-.8.9-1.8.9-2.9 0-2.9-1.9-5-6.4-5 .9-.8 1.4-1.9 1.4-3.2 0-2.4-1.9-4.3-4.3-4.3h-5.2c-1-.3-2.2-2.6-1.6-5.1.2-.4-.2-.9-.7-.8-7.9 1.2-9.4 11-7.1 13.4-6.2 0-7 5.1-5.1 7.9-9.2 3-7 16.6 2.6 16.6h22.7c9.8 0 12-13.7 2.8-16.6z"/>
    <g id="XMLID_556_">
      <path id="XMLID_557_" fill="#dea47a" d="M13.4 25.8c-.8-2.4.2-5.5 3.9-6.3.8-.2 1.3-.9 1.1-1.7-.8-2.9.5-8.2 4.5-10.7-.2-.8-.2-1.7 0-2.6 0-.2 0-.5-.2-.6-.2-.2-.4-.2-.6-.2-7.9 1.2-9.4 11-7.1 13.4-6.2 0-7 5.1-5.1 7.9-8.6 2.8-7.3 14.7.6 16.4-3.5-3.9-3.2-10.9 2.2-13.7.7-.3 1-1.2.7-1.9z"/>
    </g>
    <circle id="XMLID_555_" cx="14.1" cy="28.2" r=".9" class="st11"/>
    <circle id="XMLID_554_" cx="34.6" cy="28.2" r=".9" class="st11"/>
    <g id="XMLID_551_" stroke="#45413c" stroke-linecap="round" stroke-linejoin="round" stroke-miterlimit="10">
      <path id="XMLID_553_" fill="#ffb0ca" d="M18.2 31.3c-.3 0-.5.1-.7.3-.2.2-.3.5-.2.7.5 3.3 3.3 5.8 6.7 5.8 3.4 0 6.2-2.5 6.7-5.8 0-.3 0-.5-.2-.7-.2-.2-.4-.3-.7-.3H18.2z"/>
      <path id="XMLID_552_" fill="#ff87af" d="M29.4 35.5c-1.3-.8-3.2-1.3-5.4-1.3s-4 .5-5.4 1.3c1.2 1.6 3.2 2.6 5.4 2.6 2.2.1 4.1-1 5.4-2.6z"/>
    </g>
    <path id="XMLID_550_" fill="none" stroke="#45413c" stroke-linecap="round" stroke-linejoin="round" stroke-miterlimit="10" d="M38 24.9c.6-.8.9-1.8.9-2.9 0-2.9-1.9-5-6.4-5 .9-.8 1.4-1.9 1.4-3.2 0-2.4-1.9-4.3-4.3-4.3h-5.2c-1-.3-2.2-2.6-1.6-5.1 0-.2 0-.5-.2-.6-.2-.2-.4-.2-.6-.2-7.9 1.2-9.4 11-7.1 13.4-6.2 0-7 5.1-5.1 7.9-9.2 3-7 16.6 2.6 16.6h22.7c9.9 0 12.1-13.7 2.9-16.6z"/>
    <ellipse id="XMLID_549_" cx="11.4" cy="32.7" class="st81" rx="2.3" ry="1.4"/>
    <ellipse id="XMLID_548_" cx="37.3" cy="32.7" class="st81" rx="2.3" ry="1.4"/>
  </g>
</svg>