<svg width="512" height="512" viewBox="0 0 512 512" fill="none" xmlns="http://www.w3.org/2000/svg">
<circle cx="256" cy="256" r="256" fill="#FF6A00"/>
<circle cx="256" cy="256" r="256" fill="url(#paint0_linear_2054_50)"/>
<path fill-rule="evenodd" clip-rule="evenodd" d="M81 176.5C81 128.174 119.998 89 168.107 89C216.216 89 255.214 128.174 255.214 176.5C255.214 224.826 216.216 263.999 168.107 263.999C119.998 263.999 81 224.826 81 176.5ZM168.107 106.5C155.066 106.498 142.287 110.173 131.222 117.105C120.157 124.037 111.25 133.95 105.515 145.714C99.7795 157.479 97.4457 170.624 98.7787 183.655C100.112 196.686 105.058 209.08 113.055 219.427L210.842 121.2C198.627 111.652 183.585 106.478 168.107 106.5ZM223.159 133.572L125.372 231.8C138.78 242.269 155.531 247.461 172.48 246.399C189.429 245.337 205.409 238.094 217.417 226.032C229.425 213.97 236.635 197.918 237.692 180.893C238.75 163.867 233.581 147.04 223.159 133.572Z" fill="black"/>
<path d="M389.29 89.7C390.342 90.1504 391.296 90.8046 392.096 91.6253C392.897 92.446 393.529 93.417 393.956 94.4831C394.383 95.5491 394.597 96.6892 394.586 97.8382C394.574 98.9873 394.337 100.123 393.889 101.18L393.854 101.267L393.767 101.469L393.427 102.256L392.138 105.179C385.299 120.397 377.815 135.315 369.708 149.891C355.292 175.712 335.065 206.827 313.228 223.172L313.21 223.19C291.547 239.333 287.827 256.588 291.111 268.567C294.543 281.062 306.006 290.249 319.935 290.249H326.921C329.458 283.761 334.135 278.343 340.17 274.902C349.778 269.363 362.931 268.313 379.568 273.091C380.698 273.38 381.758 273.893 382.686 274.601C383.614 275.309 384.391 276.197 384.971 277.212C385.552 278.227 385.923 279.349 386.064 280.511C386.205 281.673 386.113 282.852 385.792 283.977C385.472 285.102 384.93 286.152 384.198 287.063C383.466 287.974 382.56 288.728 381.533 289.282C380.506 289.835 379.379 290.175 378.219 290.283C377.058 290.39 375.888 290.263 374.778 289.908C360.928 285.936 353.027 287.668 348.846 290.083C348.079 290.521 347.388 291.008 346.773 291.544C353.044 293.445 358.538 297.324 362.443 302.606C366.348 307.889 368.456 314.295 368.454 320.874H351.032C351.032 317.393 349.656 314.055 347.205 311.593C344.755 309.132 341.431 307.749 337.966 307.749H319.935C298.132 307.749 279.822 293.268 274.317 273.213C268.672 252.651 276.86 228.483 302.827 209.137C321.407 195.225 340.109 167.137 354.508 141.325C362.848 126.322 370.506 110.947 377.46 95.2474L377.765 94.5387L377.844 94.3637L377.861 94.3287V94.3199L389.29 89.7ZM312.548 326.885C314.426 328.236 315.693 330.281 316.07 332.57C316.448 334.859 315.905 337.205 314.56 339.092C309.456 346.267 302.923 352.785 295.257 358.517C293.402 359.848 291.1 360.395 288.847 360.041C286.594 359.687 284.569 358.459 283.207 356.621C281.846 354.783 281.256 352.483 281.564 350.213C281.872 347.943 283.055 345.885 284.857 344.482C290.805 340.125 296.047 334.872 300.397 328.907C301.742 327.02 303.777 325.748 306.056 325.369C308.335 324.99 310.67 325.535 312.548 326.885Z" fill="black"/>
<path fill-rule="evenodd" clip-rule="evenodd" d="M268.742 385.038H268.759C269.714 384.404 270.535 383.587 271.175 382.634C271.815 381.681 272.262 380.61 272.491 379.484C272.719 378.357 272.725 377.197 272.507 376.068C272.289 374.939 271.851 373.865 271.22 372.906C270.588 371.947 269.775 371.123 268.826 370.479C267.878 369.836 266.812 369.387 265.691 369.157C264.569 368.928 263.414 368.923 262.29 369.142C261.167 369.361 260.097 369.8 259.142 370.434L259.125 370.452L258.864 370.609C258.421 370.873 257.971 371.124 257.514 371.362C255.627 372.325 253.684 373.172 251.695 373.899C246.503 375.798 238.803 377.749 229.082 377.749C226.772 377.749 224.556 378.671 222.922 380.312C221.289 381.953 220.371 384.178 220.371 386.499C220.371 388.82 221.289 391.045 222.922 392.686C224.556 394.327 226.772 395.249 229.082 395.249C241.137 395.249 250.859 392.825 257.653 390.349C260.364 389.357 263.012 388.197 265.58 386.875C266.546 386.369 267.493 385.826 268.419 385.248L268.628 385.117L268.707 385.064L268.742 385.038Z" fill="black"/>
<path d="M368.454 408.488C368.484 406.167 367.595 403.929 365.982 402.267C364.37 400.605 362.166 399.654 359.856 399.624C357.546 399.594 355.318 400.487 353.664 402.106C352.009 403.726 351.062 405.94 351.032 408.26C350.939 414.455 351.731 420.631 353.384 426.6C354.033 428.934 354.842 431.221 355.806 433.443L355.84 433.513L356.015 433.906L356.102 434.064L356.119 434.125L356.137 434.143C356.137 434.143 356.137 434.169 363.933 430.249L356.145 434.169C357.184 436.229 358.991 437.794 361.173 438.522C363.355 439.249 365.735 439.081 367.793 438.053C369.852 437.025 371.423 435.222 372.164 433.035C372.904 430.849 372.754 428.457 371.746 426.381L371.685 426.25L371.346 425.445C370.887 424.274 370.491 423.08 370.161 421.866C368.969 417.507 368.394 413.009 368.454 408.488ZM372.365 354.264C373.095 352.062 372.924 349.658 371.89 347.583C370.856 345.507 369.043 343.929 366.851 343.195C364.658 342.462 362.266 342.634 360.199 343.672C358.133 344.711 356.562 346.532 355.832 348.734V348.76L355.806 348.813L355.762 348.962C355.502 349.752 355.261 350.548 355.039 351.35C354.595 352.925 354.002 355.148 353.419 357.808C352.252 363.049 351.032 370.303 351.032 377.749C351.032 380.07 351.95 382.295 353.583 383.936C355.217 385.577 357.433 386.499 359.743 386.499C362.053 386.499 364.269 385.577 365.902 383.936C367.536 382.295 368.454 380.07 368.454 377.749C368.454 372.062 369.412 366.199 370.422 361.597C370.938 359.271 371.539 356.965 372.225 354.684L372.339 354.334L372.365 354.264ZM341.398 355.428C341.912 354.401 342.219 353.282 342.302 352.135C342.385 350.989 342.243 349.837 341.883 348.746C341.523 347.655 340.952 346.645 340.204 345.776C339.456 344.906 338.545 344.193 337.522 343.677C336.499 343.161 335.385 342.852 334.244 342.769C333.103 342.685 331.956 342.828 330.87 343.19C329.783 343.551 328.779 344.124 327.913 344.876C327.047 345.628 326.337 346.543 325.823 347.57C324.081 351.07 322.6 354.833 321.363 358.027C320.85 359.322 320.379 360.538 319.944 361.588C318.289 365.587 316.573 368.929 313.898 372.088C313.158 372.965 312.597 373.979 312.248 375.074C311.898 376.168 311.766 377.321 311.86 378.467C312.049 380.78 313.146 382.924 314.909 384.425C316.672 385.927 318.956 386.663 321.259 386.473C323.562 386.283 325.696 385.181 327.191 383.41C331.511 378.292 334.046 373.085 336.024 368.325C336.755 366.558 337.374 364.974 337.949 363.487C339.038 360.687 340.004 358.202 341.398 355.428ZM429.368 275.156C425.927 288.561 417.338 300.741 407.774 306.507L398.81 291.492C403.776 288.508 409.986 280.563 412.504 270.781C414.899 261.453 413.636 251.758 405.849 243.936L418.166 231.563C431.284 244.741 432.93 261.296 429.368 275.156Z" fill="black"/>
<path fill-rule="evenodd" clip-rule="evenodd" d="M305.736 409.249C307.122 407.392 307.718 405.059 307.391 402.761C307.064 400.464 305.842 398.391 303.994 396.999C302.146 395.607 299.823 395.009 297.536 395.337C295.249 395.665 293.185 396.892 291.799 398.749L291.782 398.775L291.695 398.898C291.061 399.736 290.41 400.562 289.743 401.374C288.393 403.054 286.451 405.399 284.125 407.989C279.369 413.3 273.411 419.206 267.801 422.969C265.879 424.257 264.545 426.259 264.093 428.535C263.64 430.811 264.106 433.174 265.388 435.105C266.671 437.036 268.664 438.376 270.929 438.83C273.195 439.285 275.548 438.817 277.47 437.529C284.918 432.541 292.034 425.323 297.069 419.696C299.842 416.6 302.509 413.411 305.066 410.133L305.135 410.036L305.545 409.503L305.675 409.328L305.719 409.275L305.736 409.249ZM305.736 409.249L298.768 403.999L305.327 408.934L305.736 409.249Z" fill="black"/>
<defs>
<linearGradient id="paint0_linear_2054_50" x1="496.5" y1="256" x2="22" y2="264.5" gradientUnits="userSpaceOnUse">
<stop stop-color="#EE0979" stop-opacity="0"/>
<stop offset="0.837259" stop-color="#EE0979"/>
</linearGradient>
</defs>
</svg>
