<svg width="508" height="512" viewBox="0 0 508 512" fill="none" xmlns="http://www.w3.org/2000/svg">
<path d="M254.028 511.284C394.225 511.284 507.876 397.371 507.876 256.852C507.876 116.334 394.225 2.42114 254.028 2.42114C113.831 2.42114 0.179199 116.334 0.179199 256.852C0.179199 397.371 113.831 511.284 254.028 511.284Z" fill="#3392DC"/>
<path d="M254.233 495.776C385.835 495.776 492.518 388.168 492.518 255.427C492.518 122.685 385.835 15.0769 254.233 15.0769C122.632 15.0769 15.9482 122.685 15.9482 255.427C15.9482 388.168 122.632 495.776 254.233 495.776Z" fill="url(#paint0_linear_2051_17)"/>
<path d="M126.527 34.6895C97.6772 50.7996 72.2301 72.3453 51.5957 98.1328L474.145 380.135C495.256 342.449 506.448 300.031 506.674 256.85C506.65 245.765 505.904 234.694 504.439 223.707L126.527 34.6895ZM23.2969 142.207C13.479 161.776 6.22217 182.524 1.70508 203.941L328.021 499.922C375.893 484.727 418.22 455.782 449.715 416.703L23.2969 142.207Z" fill="white" fill-opacity="0.195214"/>
<path d="M493.44 36.1376L440.464 115.475L475.787 204.092L383.963 178.226L310.598 239.204L306.823 143.881L226.158 92.9501L315.65 59.9035L339.161 -32.552L398.244 42.3475L493.44 36.1376Z" fill="white" fill-opacity="0.195214"/>
<path d="M319.67 306.744L219.881 366.07L114.439 317.5L140.025 430.736L61.248 516.01L176.85 526.668L233.605 627.939L279.465 521.291L393.318 498.607L306.061 422.035L319.67 306.744Z" fill="white" fill-opacity="0.195214"/>
<path d="M133 339C109 359.16 101 419 101 419C101 419 160.84 411 181 387C192.36 373.56 192.2 352.92 179.56 340.44C173.341 334.504 165.149 331.074 156.556 330.808C147.963 330.543 139.574 333.46 133 339ZM253 315L205 267C213.514 244.911 224.235 223.737 237 203.8C255.643 173.992 281.602 149.449 312.408 132.506C343.214 115.562 377.843 106.782 413 107C413 150.52 400.52 227 317 283C296.788 295.775 275.347 306.495 253 315Z" stroke="black" stroke-width="32" stroke-linecap="round" stroke-linejoin="round"/>
<path d="M205 267H125C125 267 133.8 218.52 157 203C182.92 185.72 237 203 237 203M253 315V395C253 395 301.48 386.2 317 363C334.28 337.08 317 283 317 283" stroke="black" stroke-width="32" stroke-linecap="round" stroke-linejoin="round"/>
<defs>
<linearGradient id="paint0_linear_2051_17" x1="482.413" y1="473.601" x2="26.1844" y2="47.9456" gradientUnits="userSpaceOnUse">
<stop offset="0.0855707" stop-color="#217FC5"/>
<stop offset="1" stop-color="#3392DC"/>
</linearGradient>
</defs>
</svg>
