<svg width="512" height="512" viewBox="0 0 512 512" fill="none" xmlns="http://www.w3.org/2000/svg">
<circle cx="256" cy="256" r="256" fill="#FF6A00"/>
<circle cx="256" cy="256" r="256" fill="url(#paint0_linear_2054_54)"/>
<path d="M307.986 367.873C306.87 369.417 305.134 370.491 303.158 370.858C301.182 371.226 299.129 370.857 297.448 369.833C284.152 361.713 273.12 357.006 256 357.006C238.88 357.006 227.848 361.713 214.552 369.833C213.721 370.386 212.778 370.78 211.778 370.989C210.778 371.199 209.742 371.22 208.733 371.052C207.724 370.884 206.762 370.531 205.906 370.012C205.049 369.494 204.315 368.821 203.748 368.035C203.181 367.249 202.792 366.366 202.606 365.438C202.419 364.51 202.438 363.558 202.662 362.637C202.886 361.716 203.31 360.847 203.908 360.081C204.506 359.314 205.267 358.667 206.144 358.178C221.019 349.062 235.209 343.007 256 343.007C276.791 343.007 290.981 349.062 305.856 358.178C307.535 359.205 308.702 360.803 309.101 362.62C309.501 364.438 309.1 366.327 307.986 367.873ZM356.815 247.34C350.348 253.99 336.424 259.012 324.478 259.012C312.533 259.012 298.571 253.99 292.141 247.34C290.797 245.948 288.906 245.104 286.885 244.994C284.865 244.884 282.879 245.517 281.366 246.754C279.852 247.991 278.935 249.73 278.815 251.589C278.696 253.448 279.384 255.275 280.728 256.667C290.087 266.292 308.062 273.011 324.478 273.011C340.894 273.011 358.832 266.292 368.228 256.685C369.575 255.292 370.266 253.465 370.148 251.604C370.03 249.743 369.114 248.002 367.601 246.763C366.087 245.524 364.1 244.888 362.078 244.997C360.055 245.105 358.162 245.948 356.815 247.34ZM431 126.02V223.629C431 284.875 413.12 342.622 380.63 386.229C347.552 430.589 303.288 455 256 455C208.712 455 164.448 430.589 131.37 386.247C98.8804 342.709 81 284.963 81 223.647V126.02C80.9962 122.605 81.8977 119.241 83.6265 116.219C85.3553 113.197 87.8591 110.609 90.9209 108.678C93.9827 106.748 97.5101 105.533 101.197 105.14C104.885 104.746 108.621 105.186 112.082 106.421C139.321 116.186 194.236 132.495 256 132.495C317.764 132.495 372.679 116.186 399.918 106.456C403.376 105.222 407.109 104.782 410.793 105.174C414.477 105.565 418.003 106.777 421.063 108.703C424.124 110.63 426.629 113.214 428.36 116.231C430.092 119.248 430.998 122.608 431 126.02ZM415.783 126.02C415.785 124.882 415.486 123.761 414.911 122.754C414.337 121.746 413.504 120.883 412.484 120.238C411.465 119.593 410.291 119.187 409.062 119.054C407.834 118.921 406.589 119.066 405.435 119.476C377.207 129.52 320.236 146.494 256 146.494C191.764 146.494 134.793 129.52 106.565 119.493C105.69 119.186 104.763 119.026 103.826 119.021C102.309 119.017 100.827 119.445 99.5843 120.246C98.5535 120.882 97.7078 121.742 97.1209 122.748C96.534 123.755 96.2238 124.878 96.2174 126.02V223.612C96.2174 343.497 167.891 441.001 256 441.001C344.109 441.001 415.783 343.497 415.783 223.647V126.02ZM231.272 256.667C231.939 255.978 232.452 255.174 232.781 254.303C233.11 253.431 233.25 252.508 233.192 251.587C233.133 250.665 232.878 249.764 232.441 248.933C232.004 248.102 231.393 247.359 230.644 246.745C229.895 246.132 229.021 245.66 228.074 245.357C227.126 245.054 226.123 244.926 225.121 244.979C224.12 245.033 223.14 245.267 222.237 245.669C221.334 246.072 220.526 246.633 219.859 247.323C213.391 253.972 199.467 258.995 187.522 258.995C175.576 258.995 161.614 253.972 155.185 247.323C153.84 245.93 151.95 245.087 149.929 244.977C147.908 244.867 145.922 245.5 144.409 246.737C142.896 247.973 141.978 249.713 141.859 251.572C141.739 253.431 142.427 255.257 143.772 256.65C153.13 266.274 171.106 272.994 187.522 272.994C203.938 272.994 221.875 266.292 231.272 256.685V256.667Z" fill="black"/>
<defs>
<linearGradient id="paint0_linear_2054_54" x1="496.5" y1="256" x2="22" y2="264.5" gradientUnits="userSpaceOnUse">
<stop stop-color="#EE0979" stop-opacity="0"/>
<stop offset="0.837259" stop-color="#EE0979"/>
</linearGradient>
</defs>
</svg>
